<svg width="26" height="26" viewBox="0 0 26 26" fill="none" xmlns="http://www.w3.org/2000/svg">
<path d="M1 20.7523C1 15.5788 1 10.4073 1 5.23577C1.00406 5.2114 1.01218 5.18703 1.01422 5.16267C1.03249 5.01648 1.04061 4.87029 1.06701 4.72613C1.24775 3.72715 1.70669 2.87843 2.45603 2.19418C3.29878 1.42261 4.29587 1.01043 5.43713 1.0084C10.4794 0.996221 15.5197 1.00028 20.5599 1.00231C21.1021 1.00231 21.6281 1.10789 22.1337 1.30688C23.8802 1.99925 24.9991 3.64391 24.9991 5.52409C25.0011 10.5068 24.9991 15.4874 24.9991 20.4701C24.9991 20.8132 24.9646 21.1544 24.8874 21.4894C24.4163 23.5503 22.5988 24.998 20.4848 25C15.4892 25 10.4936 25 5.49805 25C5.18532 25 4.87462 24.9695 4.57001 24.9025C3.63182 24.7015 2.83577 24.2487 2.18594 23.5442C1.57876 22.8863 1.20104 22.1127 1.05686 21.2275C1.03452 21.0691 1.02031 20.9107 1 20.7523ZM12.4431 11.1261C12.4431 12.0661 12.4431 12.992 12.4431 13.9301C12.9285 13.9301 13.4077 13.9301 13.8971 13.9301C13.8971 16.7016 13.8971 19.465 13.8971 22.2305C15.1501 22.2305 16.3949 22.2305 17.6499 22.2305C17.6499 19.461 17.6499 16.6976 17.6499 13.924C18.4013 13.924 19.1445 13.924 19.8918 13.924C19.9934 12.99 20.0949 12.0621 20.1985 11.124C19.3415 11.124 18.4967 11.124 17.6479 11.124C17.6479 11.0936 17.6479 11.0712 17.6479 11.0489C17.6479 10.5677 17.6458 10.0844 17.6499 9.60323C17.6519 9.41846 17.6601 9.23369 17.6804 9.04892C17.7149 8.77075 17.8631 8.57786 18.1373 8.48852C18.3282 8.42558 18.5251 8.40933 18.7221 8.4073C19.2542 8.40324 19.7883 8.40527 20.3203 8.40527C20.3487 8.40527 20.3792 8.40527 20.4076 8.40527C20.4076 7.46924 20.4076 6.54539 20.4076 5.61952C20.3914 5.61749 20.3812 5.61546 20.3711 5.61546C19.3131 5.61952 18.2551 5.61952 17.1971 5.6317C16.7564 5.63779 16.3238 5.71698 15.9055 5.85911C15.2191 6.09058 14.679 6.50072 14.3378 7.15046C14.0291 7.73523 13.9174 8.37075 13.9012 9.02252C13.8849 9.69054 13.8951 10.3565 13.8931 11.0245C13.8931 11.057 13.8931 11.0895 13.8931 11.1261C13.4057 11.1261 12.9264 11.1261 12.4431 11.1261Z" fill="black"/>
</svg>
