<svg width="24" height="24" viewBox="0 0 24 24" fill="none" xmlns="http://www.w3.org/2000/svg">
<path d="M12.5462 5C16.4582 5.09381 20.1823 6.77712 23.2128 10.0499C24.0838 10.9932 24.2247 12.2544 23.6718 13.2237C23.5518 13.4322 23.4006 13.625 23.2389 13.8022C20.8813 16.4392 17.9656 18.1121 14.4813 18.6802C9.96436 19.4202 5.93246 18.258 2.40128 15.3709C1.76494 14.8497 1.1964 14.2452 0.638299 13.6354C-0.217111 12.6974 -0.206679 11.2538 0.633083 10.2688C2.45344 8.13732 4.71193 6.65725 7.36162 5.75567C8.86902 5.24494 10.4234 5.01042 12.5462 5ZM17.1258 11.9417C17.1206 9.11708 14.8465 6.83966 12.0194 6.83966C9.18197 6.83444 6.8974 9.11708 6.90262 11.9521C6.90262 14.7768 9.18197 17.0542 12.009 17.0542C14.8412 17.0646 17.1258 14.7768 17.1258 11.9417Z" fill="black"/>
<path d="M12.0046 14.7455C10.4763 14.7403 9.20367 13.4687 9.2141 11.9574C9.22975 10.394 10.4868 9.15362 12.0463 9.15883C13.5642 9.16404 14.8212 10.4461 14.8108 11.973C14.7951 13.5 13.5329 14.7508 12.0046 14.7455Z" fill="black"/>
</svg>
