<svg width="26" height="26" viewBox="0 0 26 26" fill="none" xmlns="http://www.w3.org/2000/svg">
<path d="M24.348 3.36145C23.9569 4.50154 23.2614 5.34304 22.2934 5.99064C23.2219 5.90533 24.0991 5.64939 24.9526 5.2965C24.9684 5.31589 24.9842 5.33528 25 5.35855C24.6049 5.81226 24.2295 6.28536 23.8067 6.71192C23.459 7.06093 23.052 7.35565 22.6806 7.68526C22.6134 7.74343 22.5581 7.85589 22.5621 7.9412C22.6292 11.5321 21.4715 14.7081 19.1482 17.4691C17.5598 19.3576 15.5644 20.6877 13.2055 21.4749C11.5183 22.0372 9.77972 22.2621 7.99769 22.1962C6.16036 22.1303 4.40204 21.7347 2.73066 20.9824C2.15772 20.7265 1.6164 20.4008 1.06322 20.106C1.04742 20.0983 1.03951 20.0828 1 20.0401C3.09022 20.234 5.04215 19.8734 6.85973 18.9078C7.32598 18.6596 7.75667 18.3571 8.19526 18.0585C5.95884 17.8491 4.44946 16.7401 3.61179 14.6538C4.37438 14.7779 5.08561 14.7624 5.80869 14.5685C2.88475 13.8821 1.7942 11.2917 1.9246 9.76767C2.59631 10.105 3.29569 10.3183 4.1136 10.3455C3.03095 9.58154 2.33948 8.61595 2.05894 7.38667C1.78235 6.16514 1.96806 5.00954 2.60026 3.8966C5.27527 6.98725 8.64965 8.67412 12.7708 8.96108C12.7392 8.64697 12.6997 8.35613 12.6839 8.06142C12.6207 6.97949 12.9091 5.98288 13.5413 5.09873C14.4659 3.81128 15.7422 3.09776 17.3464 3.00857C18.7491 2.93101 19.974 3.38084 20.9974 4.32704C21.1515 4.47052 21.2819 4.51705 21.4952 4.46664C22.3961 4.24948 23.2575 3.94701 24.0635 3.50105C24.1426 3.46228 24.2176 3.42738 24.348 3.36145Z" fill="black"/>
</svg>
