<svg width="15" height="24" viewBox="0 0 15 24" fill="none" xmlns="http://www.w3.org/2000/svg">
<g clip-path="url(#clip0)">
<path d="M4.34159 6.82864H0.300457C0.279891 4.85422 0.958555 3.22251 2.33645 1.9335C3.71434 0.644501 5.52925 0 7.78118 0C9.23106 0 10.465 0.265985 11.483 0.797954C12.501 1.32992 13.3133 2.09719 13.92 3.09974C14.537 4.1023 14.8455 5.15601 14.8455 6.26087C14.8455 6.86445 14.7478 7.4578 14.5524 8.04092C14.357 8.62404 14.0485 9.22251 13.6269 9.83632C13.3802 10.1944 12.7889 10.798 11.8532 11.6471C10.9586 12.4552 10.3982 13.0281 10.1719 13.3657C9.94571 13.6931 9.75548 14.133 9.60124 14.6854C9.447 15.2379 9.34931 16.0051 9.30818 16.9872H5.12823L5.1128 16.2967C5.1128 14.9258 5.36473 13.6829 5.86859 12.5678C6.37244 11.4425 7.18992 10.3887 8.32103 9.40665C9.41101 8.45524 10.0691 7.80051 10.2953 7.44245C10.5215 7.0844 10.6347 6.66496 10.6347 6.18414C10.6347 5.52941 10.357 4.97698 9.80175 4.52685C9.25676 4.0665 8.52155 3.83632 7.59609 3.83632C6.65008 3.83632 5.87373 4.11765 5.26704 4.68031C4.66036 5.23274 4.35187 5.94885 4.34159 6.82864ZM7.28761 18.7366C8.03825 18.7366 8.67579 18.9923 9.20021 19.5038C9.73491 20.0153 10.0023 20.6343 10.0023 21.3606C10.0023 22.087 9.74006 22.711 9.21563 23.2327C8.69121 23.7442 8.05882 24 7.31846 24C6.5781 24 5.94571 23.7442 5.42128 23.2327C4.90715 22.711 4.65008 22.087 4.65008 21.3606C4.65008 20.6343 4.90715 20.0153 5.42128 19.5038C5.93542 18.9923 6.55753 18.7366 7.28761 18.7366Z" fill="black"/>
</g>
<defs>
<clipPath id="clip0">
<rect width="15" height="24" fill="white"/>
</clipPath>
</defs>
</svg>
