<svg width="26" height="26" viewBox="0 0 26 26" fill="none" xmlns="http://www.w3.org/2000/svg">
<path d="M24.9926 13.0289C24.9926 14.6167 25.0131 16.2113 24.9858 17.7991C24.9314 20.8453 23.5283 23.0464 20.7904 24.3821C19.8709 24.8318 18.8766 25.0022 17.855 25.0022C14.6198 25.0022 11.3847 25.0022 8.14961 25.0022C4.23341 25.0022 1.06641 21.922 1.02554 18.0036C0.991487 14.6644 0.991487 11.3252 1.02554 7.98606C1.06641 4.10853 4.21298 1.0215 8.10193 1.00787C11.3711 1.00105 14.6403 0.99424 17.9094 1.00787C21.8324 1.0215 24.945 4.12897 24.9926 8.0542C25.0063 9.71016 24.9926 11.3729 24.9926 13.0289ZM3.19818 12.9676C3.19818 14.5894 3.19818 16.2113 3.19818 17.84C3.19818 18.5964 3.32077 19.3324 3.66131 20.0139C4.58076 21.8266 6.06551 22.7874 8.09512 22.8079C11.3507 22.8352 14.6062 22.8215 17.8618 22.8079C18.2227 22.8079 18.5905 22.7738 18.9379 22.6989C21.2331 22.1878 22.7791 20.2933 22.7928 17.9422C22.8132 14.6508 22.7996 11.3593 22.7928 8.06783C22.7928 7.72029 22.7519 7.36593 22.6702 7.02519C22.1594 4.77636 20.3 3.22944 17.9912 3.209C14.6539 3.18174 11.3166 3.19537 7.98615 3.20218C7.67285 3.20218 7.35275 3.24307 7.03945 3.31122C4.75103 3.8155 3.20499 5.71678 3.18455 8.06783C3.18455 9.69653 3.19818 11.332 3.19818 12.9676Z" fill="black"/>
<path d="M13.0124 19.5437C9.42314 19.5506 6.46727 16.5998 6.46727 13.0017C6.46046 9.42401 9.40271 6.47327 12.9784 6.45964C16.5676 6.4392 19.5371 9.39675 19.5439 12.9881C19.5508 16.5794 16.6085 19.5369 13.0124 19.5437ZM12.9852 17.3631C15.3894 17.3699 17.3373 15.4481 17.3577 13.0358C17.3781 10.6098 15.4439 8.65395 13.0192 8.64714C10.5946 8.64032 8.65352 10.5757 8.64671 13.0017C8.64671 15.4004 10.581 17.3494 12.9852 17.3631Z" fill="black"/>
<path d="M20.4293 6.58912C20.4225 7.12748 19.9594 7.57043 19.4145 7.5568C18.8764 7.54317 18.4406 7.07978 18.461 6.52779C18.4746 5.99625 18.9241 5.57374 19.4554 5.58056C19.9934 5.58056 20.4361 6.03714 20.4293 6.58912Z" fill="black"/>
</svg>
