<svg width="24" height="24" viewBox="0 0 24 24" fill="none" xmlns="http://www.w3.org/2000/svg">
<path d="M20.4392 14.3641C21.1495 14.3641 21.8204 14.3641 22.5258 14.3641C22.5307 14.4553 22.5356 14.5465 22.5356 14.6327C22.5356 15.9504 22.5406 17.268 22.5356 18.5857C22.5307 20.8662 21.0607 22.6248 18.8706 22.9593C18.4858 23.0201 18.0813 22.9948 17.6916 22.9948C13.7405 22.9948 9.78436 22.9998 5.83319 22.9948C3.59863 22.9948 1.87709 21.4997 1.54165 19.2648C1.49726 18.9759 1.50219 18.6769 1.50219 18.3779C1.49726 17.1363 1.50219 15.8946 1.50219 14.653C1.50219 14.5618 1.50219 14.4705 1.50219 14.3641C2.20758 14.3641 2.88338 14.3641 3.59863 14.3641C3.59863 14.4655 3.59863 14.5618 3.59863 14.658C3.59863 15.9402 3.59863 17.2275 3.59863 18.5097C3.59863 19.9236 4.4964 20.8358 5.86772 20.8358C9.97674 20.8358 14.0858 20.8358 18.1948 20.8358C18.8508 20.8358 19.4231 20.6331 19.8769 20.1314C20.2715 19.6955 20.4441 19.1736 20.4441 18.5806C20.4441 17.2782 20.4441 15.9808 20.4441 14.6783C20.4392 14.5922 20.4392 14.4908 20.4392 14.3641Z" fill="black"/>
<path d="M19.0038 8.19644C18.5451 8.66269 18.0617 9.16442 17.5585 9.67628C16.0984 8.1711 14.6136 6.64059 13.0795 5.0594C13.0795 8.91609 13.0795 12.6917 13.0795 16.4876C12.3692 16.4876 11.6885 16.4876 10.9782 16.4876C10.9782 12.7069 10.9782 8.92622 10.9782 5.1709C9.4934 6.69634 8.01356 8.21672 6.53865 9.73202C5.99111 9.16442 5.50277 8.65762 5.03415 8.16097C7.3427 5.78918 9.68578 3.38699 12.0042 1C14.3275 3.39206 16.6756 5.79932 19.0038 8.19644Z" fill="black"/>
</svg>
