<svg width="24" height="24" viewBox="0 0 24 24" fill="none" xmlns="http://www.w3.org/2000/svg">
<path d="M12.0441 0.500023C18.3442 0.512605 23.5 5.6964 23.5 12.0126C23.5 18.3539 18.3065 23.5126 11.956 23.5C5.63074 23.4874 0.474941 18.2784 0.500092 11.9245C0.525242 5.62091 5.70619 0.487441 12.0441 0.500023ZM1.48095 12C1.4558 14.3654 2.19773 16.4792 3.59357 18.3791C3.80735 18.6685 3.9834 18.7691 4.36066 18.6181C5.74392 18.0897 7.15233 17.5864 8.56075 17.1335C8.95058 17.0076 9.0889 16.8315 9.07633 16.4415C9.02603 15.221 8.5859 14.1264 8.10804 13.0443C7.74336 12.2013 7.40384 11.3709 7.54216 10.4902C7.68049 9.59683 7.61761 8.74125 7.50444 7.87309C7.36611 6.72813 7.65534 5.70898 8.40985 4.82824C9.51646 3.54487 11.0003 3.29323 12.5722 3.39389C15.1878 3.55746 16.81 5.53284 16.4705 8.12473C16.3951 8.72867 16.2316 9.34519 16.3825 9.93655C16.6088 10.8425 16.5082 11.7358 16.1058 12.5033C15.5902 13.4973 15.4519 14.6171 14.9489 15.5985C14.8106 15.8627 14.8106 16.1647 14.7854 16.454C14.7603 16.8063 14.9112 16.9699 15.2381 17.0831C16.722 17.5738 18.2059 18.0771 19.6897 18.6181C20.0544 18.744 20.2053 18.6433 20.4065 18.3791C22.3054 15.7998 22.9467 12.9311 22.3054 9.81073C21.2113 4.50111 16.2442 0.940394 10.8368 1.51917C5.51757 2.08536 1.48095 6.61489 1.48095 12Z" fill="black"/>
</svg>
