<svg width="420" height="252" viewBox="0 0 420 252" fill="none" xmlns="http://www.w3.org/2000/svg">
<g clip-path="url(#clip0)">
<g filter="url(#filter0_d)">
<path d="M7.50322 241.438C6.6052 241.438 5.88288 241.171 5.33626 240.639C4.78964 240.106 4.51633 239.384 4.51633 238.471V203.778C4.51633 202.903 4.77012 202.218 5.27769 201.724C5.82431 201.191 6.56616 200.925 7.50322 200.925H21.6178C25.9907 200.925 29.3876 201.971 31.8084 204.063C34.2291 206.156 35.4395 209.123 35.4395 212.965C35.4395 216.769 34.2291 219.736 31.8084 221.866C29.3876 223.996 25.9907 225.062 21.6178 225.062H10.5487V238.471C10.5487 239.384 10.2754 240.106 9.72875 240.639C9.22118 241.171 8.47933 241.438 7.50322 241.438ZM20.9735 220.326C26.7521 220.326 29.6414 217.872 29.6414 212.965C29.6414 208.096 26.7521 205.661 20.9735 205.661H10.5487V220.326H20.9735Z" fill="#333333"/>
<path d="M53.3389 212.622C57.1262 212.622 59.9374 213.554 61.7725 215.418C63.6466 217.282 64.5837 220.116 64.5837 223.92V238.699C64.5837 239.574 64.3299 240.258 63.8223 240.753C63.3147 241.209 62.612 241.438 61.7139 241.438C60.855 241.438 60.1717 241.19 59.6641 240.696C59.1565 240.201 58.9027 239.536 58.9027 238.699V236.588C58.1609 238.185 57.0481 239.422 55.5644 240.297C54.1198 241.133 52.4214 241.552 50.4691 241.552C48.595 241.552 46.8771 241.19 45.3153 240.468C43.7535 239.707 42.5236 238.661 41.6256 237.329C40.7666 235.998 40.3371 234.514 40.3371 232.879C40.3371 230.863 40.8642 229.284 41.9184 228.143C43.0117 226.964 44.7882 226.127 47.248 225.632C49.7468 225.138 53.1632 224.89 57.4971 224.89H58.8442V223.236C58.8442 221.105 58.3952 219.565 57.4971 218.614C56.5991 217.663 55.1545 217.187 53.1632 217.187C51.7967 217.187 50.5082 217.358 49.2978 217.701C48.0874 218.043 46.7599 218.538 45.3153 219.184C44.2611 219.755 43.5192 220.04 43.0898 220.04C42.5041 220.04 42.016 219.831 41.6256 219.413C41.2742 218.994 41.0985 218.462 41.0985 217.815C41.0985 217.244 41.2547 216.75 41.567 216.331C41.9184 215.875 42.465 215.437 43.2069 215.019C44.5734 214.296 46.1743 213.726 48.0093 213.307C49.8444 212.851 51.621 212.622 53.3389 212.622ZM51.5233 237.272C53.6708 237.272 55.4278 236.569 56.7943 235.161C58.1609 233.716 58.8442 231.871 58.8442 229.626V228.143H57.79C54.7445 228.143 52.4018 228.276 50.762 228.542C49.1221 228.808 47.9508 229.265 47.248 229.912C46.5452 230.52 46.1938 231.414 46.1938 232.593C46.1938 233.963 46.7014 235.085 47.7165 235.96C48.7317 236.835 50.0006 237.272 51.5233 237.272Z" fill="#333333"/>
<path d="M96.3359 212.737C97.234 212.737 97.9368 213.003 98.4443 213.535C98.991 214.03 99.2643 214.696 99.2643 215.532V238.927C99.2643 243.188 98.0929 246.402 95.7503 248.57C93.4467 250.738 90.0303 251.823 85.5011 251.823C81.2843 251.823 77.7703 251.043 74.9591 249.483C73.5145 248.684 72.7922 247.733 72.7922 246.63C72.7922 245.983 72.9679 245.451 73.3193 245.032C73.7097 244.614 74.1782 244.405 74.7249 244.405C75.2324 244.405 76.0329 244.69 77.1261 245.261C78.5317 245.907 79.8397 246.402 81.0501 246.744C82.2604 247.125 83.7051 247.315 85.384 247.315C90.7721 247.315 93.4662 244.671 93.4662 239.384V234.99C92.6462 236.664 91.3968 237.976 89.7179 238.927C88.039 239.84 86.0868 240.297 83.8613 240.297C81.3624 240.297 79.1369 239.726 77.1847 238.585C75.2324 237.444 73.7097 235.827 72.6165 233.735C71.5623 231.642 71.0352 229.227 71.0352 226.488C71.0352 223.749 71.5818 221.334 72.675 219.241C73.7683 217.149 75.2715 215.532 77.1847 214.391C79.1369 213.212 81.3624 212.622 83.8613 212.622C86.0477 212.622 87.9609 213.079 89.6008 213.992C91.2797 214.905 92.5486 216.198 93.4076 217.872V215.475C93.4076 214.639 93.6614 213.973 94.169 213.478C94.7156 212.984 95.4379 212.737 96.3359 212.737ZM85.2669 235.732C87.8047 235.732 89.796 234.914 91.2406 233.278C92.6853 231.642 93.4076 229.379 93.4076 226.488C93.4076 223.635 92.6853 221.391 91.2406 219.755C89.835 218.081 87.8438 217.244 85.2669 217.244C82.6899 217.244 80.6596 218.062 79.1759 219.698C77.7313 221.334 77.009 223.597 77.009 226.488C77.009 229.379 77.7508 231.642 79.2345 233.278C80.7182 234.914 82.729 235.732 85.2669 235.732Z" fill="#333333"/>
<path d="M129.879 234.134C130.425 234.134 130.874 234.343 131.226 234.762C131.577 235.18 131.753 235.713 131.753 236.359C131.753 237.463 131.05 238.395 129.644 239.155C128.278 239.916 126.775 240.506 125.135 240.924C123.534 241.343 121.992 241.552 120.508 241.552C115.979 241.552 112.406 240.277 109.79 237.729C107.174 235.142 105.866 231.623 105.866 227.173C105.866 224.32 106.432 221.79 107.565 219.584C108.736 217.377 110.356 215.666 112.426 214.448C114.534 213.231 116.916 212.622 119.571 212.622C123.397 212.622 126.423 213.821 128.649 216.217C130.874 218.614 131.987 221.847 131.987 225.917C131.987 227.439 131.284 228.2 129.879 228.2H111.782C112.172 234.096 115.081 237.044 120.508 237.044C121.953 237.044 123.202 236.854 124.256 236.473C125.31 236.093 126.423 235.599 127.594 234.99C127.712 234.914 128.024 234.762 128.532 234.533C129.078 234.267 129.527 234.134 129.879 234.134ZM119.688 216.845C117.423 216.845 115.608 217.549 114.241 218.956C112.875 220.364 112.055 222.342 111.782 224.89H126.892C126.775 222.304 126.091 220.326 124.842 218.956C123.631 217.549 121.914 216.845 119.688 216.845Z" fill="#333333"/>
<path d="M169.351 212.622C176.183 212.622 179.6 216.369 179.6 223.863V238.699C179.6 239.574 179.326 240.258 178.78 240.753C178.272 241.209 177.55 241.438 176.613 241.438C175.715 241.438 174.993 241.19 174.446 240.696C173.938 240.201 173.685 239.536 173.685 238.699V224.149C173.685 221.79 173.197 220.059 172.22 218.956C171.283 217.853 169.8 217.301 167.769 217.301C165.388 217.301 163.474 218.024 162.03 219.47C160.585 220.915 159.863 222.855 159.863 225.29V238.699C159.863 239.536 159.59 240.201 159.043 240.696C158.535 241.19 157.833 241.438 156.935 241.438C156.036 241.438 155.314 241.19 154.768 240.696C154.221 240.201 153.948 239.536 153.948 238.699V215.475C153.948 214.677 154.221 214.03 154.768 213.535C155.353 213.003 156.076 212.737 156.935 212.737C157.793 212.737 158.477 212.984 158.984 213.478C159.492 213.973 159.746 214.62 159.746 215.418V217.758C160.683 216.084 161.991 214.81 163.67 213.935C165.349 213.06 167.242 212.622 169.351 212.622Z" fill="#333333"/>
<path d="M200.108 241.552C197.297 241.552 194.818 240.962 192.67 239.783C190.562 238.604 188.922 236.93 187.751 234.762C186.618 232.555 186.052 230.007 186.052 227.116C186.052 224.187 186.618 221.638 187.751 219.47C188.922 217.263 190.562 215.571 192.67 214.391C194.818 213.212 197.297 212.622 200.108 212.622C202.919 212.622 205.379 213.212 207.488 214.391C209.635 215.571 211.275 217.263 212.407 219.47C213.578 221.638 214.164 224.187 214.164 227.116C214.164 230.007 213.578 232.555 212.407 234.762C211.275 236.93 209.635 238.604 207.488 239.783C205.379 240.962 202.919 241.552 200.108 241.552ZM200.108 236.987C202.724 236.987 204.715 236.15 206.082 234.476C207.488 232.803 208.19 230.349 208.19 227.116C208.19 223.92 207.488 221.486 206.082 219.812C204.676 218.1 202.685 217.244 200.108 217.244C197.531 217.244 195.54 218.1 194.134 219.812C192.729 221.486 192.026 223.92 192.026 227.116C192.026 230.349 192.709 232.803 194.076 234.476C195.481 236.15 197.492 236.987 200.108 236.987Z" fill="#333333"/>
<path d="M234.633 237.044C235.492 237.12 236.097 237.348 236.449 237.729C236.839 238.071 237.034 238.566 237.034 239.212C237.034 239.973 236.722 240.563 236.097 240.981C235.512 241.362 234.633 241.514 233.462 241.438L231.881 241.324C228.718 241.095 226.356 240.163 224.794 238.528C223.232 236.854 222.451 234.4 222.451 231.167V217.758H218.937C217.219 217.758 216.36 217.016 216.36 215.532C216.36 214.848 216.575 214.315 217.005 213.935C217.473 213.516 218.117 213.307 218.937 213.307H222.451V207.43C222.451 206.555 222.705 205.87 223.213 205.376C223.759 204.881 224.482 204.634 225.38 204.634C226.278 204.634 227 204.881 227.547 205.376C228.093 205.87 228.367 206.555 228.367 207.43V213.307H234.165C234.985 213.307 235.609 213.516 236.039 213.935C236.507 214.315 236.742 214.848 236.742 215.532C236.742 216.255 236.507 216.807 236.039 217.187C235.609 217.568 234.985 217.758 234.165 217.758H228.367V231.566C228.367 233.354 228.737 234.667 229.479 235.503C230.26 236.34 231.432 236.816 232.993 236.93L234.633 237.044Z" fill="#333333"/>
<path d="M260.415 241.438C259.517 241.438 258.794 241.171 258.248 240.639C257.701 240.068 257.428 239.346 257.428 238.471V203.778C257.428 202.903 257.682 202.218 258.189 201.724C258.736 201.191 259.478 200.925 260.415 200.925H281.382C283.256 200.925 284.193 201.724 284.193 203.322C284.193 204.919 283.256 205.718 281.382 205.718H263.402V218.328H280.21C282.084 218.328 283.022 219.127 283.022 220.725C283.022 222.323 282.084 223.121 280.21 223.121H263.402V238.471C263.402 239.384 263.128 240.106 262.582 240.639C262.074 241.171 261.352 241.438 260.415 241.438Z" fill="#333333"/>
<path d="M301.399 241.552C298.587 241.552 296.108 240.962 293.961 239.783C291.852 238.604 290.212 236.93 289.041 234.762C287.909 232.555 287.343 230.007 287.343 227.116C287.343 224.187 287.909 221.638 289.041 219.47C290.212 217.263 291.852 215.571 293.961 214.391C296.108 213.212 298.587 212.622 301.399 212.622C304.21 212.622 306.67 213.212 308.778 214.391C310.925 215.571 312.565 217.263 313.698 219.47C314.869 221.638 315.455 224.187 315.455 227.116C315.455 230.007 314.869 232.555 313.698 234.762C312.565 236.93 310.925 238.604 308.778 239.783C306.67 240.962 304.21 241.552 301.399 241.552ZM301.399 236.987C304.015 236.987 306.006 236.15 307.372 234.476C308.778 232.803 309.481 230.349 309.481 227.116C309.481 223.92 308.778 221.486 307.372 219.812C305.967 218.1 303.976 217.244 301.399 217.244C298.822 217.244 296.83 218.1 295.425 219.812C294.019 221.486 293.316 223.92 293.316 227.116C293.316 230.349 294 232.803 295.366 234.476C296.772 236.15 298.783 236.987 301.399 236.987Z" fill="#333333"/>
<path d="M344.179 212.737C345.077 212.737 345.78 212.984 346.287 213.478C346.834 213.973 347.107 214.658 347.107 215.532V238.756C347.107 239.555 346.834 240.201 346.287 240.696C345.741 241.19 345.018 241.438 344.12 241.438C343.3 241.438 342.637 241.209 342.129 240.753C341.621 240.258 341.368 239.612 341.368 238.813V236.645C340.47 238.242 339.22 239.46 337.619 240.297C336.058 241.133 334.301 241.552 332.348 241.552C325.398 241.552 321.923 237.824 321.923 230.368V215.532C321.923 214.658 322.177 213.973 322.685 213.478C323.231 212.984 323.973 212.737 324.91 212.737C325.808 212.737 326.511 212.984 327.019 213.478C327.565 213.973 327.839 214.658 327.839 215.532V230.311C327.839 232.555 328.307 234.21 329.244 235.275C330.181 236.34 331.626 236.873 333.578 236.873C335.882 236.873 337.717 236.15 339.083 234.705C340.489 233.259 341.192 231.338 341.192 228.942V215.532C341.192 214.696 341.465 214.03 342.012 213.535C342.558 213.003 343.281 212.737 344.179 212.737Z" fill="#333333"/>
<path d="M370.788 212.622C377.62 212.622 381.037 216.369 381.037 223.863V238.699C381.037 239.574 380.764 240.258 380.217 240.753C379.709 241.209 378.987 241.438 378.05 241.438C377.152 241.438 376.43 241.19 375.883 240.696C375.375 240.201 375.122 239.536 375.122 238.699V224.149C375.122 221.79 374.634 220.059 373.657 218.956C372.72 217.853 371.237 217.301 369.206 217.301C366.825 217.301 364.911 218.024 363.467 219.47C362.022 220.915 361.3 222.855 361.3 225.29V238.699C361.3 239.536 361.027 240.201 360.48 240.696C359.972 241.19 359.27 241.438 358.372 241.438C357.474 241.438 356.751 241.19 356.205 240.696C355.658 240.201 355.385 239.536 355.385 238.699V215.475C355.385 214.677 355.658 214.03 356.205 213.535C356.79 213.003 357.513 212.737 358.372 212.737C359.231 212.737 359.914 212.984 360.421 213.478C360.929 213.973 361.183 214.62 361.183 215.418V217.758C362.12 216.084 363.428 214.81 365.107 213.935C366.786 213.06 368.679 212.622 370.788 212.622Z" fill="#333333"/>
<path d="M412.497 200.64C413.395 200.64 414.117 200.887 414.664 201.382C415.211 201.876 415.484 202.542 415.484 203.379V238.642C415.484 239.517 415.211 240.201 414.664 240.696C414.157 241.19 413.454 241.438 412.556 241.438C411.658 241.438 410.935 241.19 410.389 240.696C409.881 240.201 409.627 239.517 409.627 238.642V236.359C408.768 238.033 407.519 239.326 405.879 240.239C404.239 241.114 402.346 241.552 400.198 241.552C397.738 241.552 395.532 240.943 393.58 239.726C391.667 238.509 390.164 236.797 389.071 234.591C388.016 232.384 387.489 229.855 387.489 227.002C387.489 224.111 388.016 221.581 389.071 219.413C390.164 217.244 391.667 215.571 393.58 214.391C395.493 213.212 397.699 212.622 400.198 212.622C402.346 212.622 404.22 213.079 405.821 213.992C407.46 214.867 408.71 216.122 409.569 217.758V203.265C409.569 202.466 409.823 201.838 410.33 201.382C410.877 200.887 411.599 200.64 412.497 200.64ZM401.604 236.987C404.142 236.987 406.113 236.131 407.519 234.419C408.925 232.708 409.627 230.273 409.627 227.116C409.627 223.958 408.925 221.524 407.519 219.812C406.152 218.1 404.181 217.244 401.604 217.244C399.027 217.244 397.016 218.1 395.571 219.812C394.166 221.486 393.463 223.882 393.463 227.002C393.463 230.121 394.185 232.574 395.63 234.362C397.075 236.112 399.066 236.987 401.604 236.987Z" fill="#333333"/>
</g>
<path d="M118.325 109.641C129.865 109.641 135.635 114.268 135.635 123.522C135.635 132.933 129.865 137.639 118.325 137.639H109.552V151.05C109.552 157.01 107.892 161.559 104.572 164.696C101.252 167.833 96.905 169.402 91.5302 169.402C86.1554 169.402 81.8081 167.833 78.4883 164.696C75.1686 161.559 73.5087 157.01 73.5087 151.05V137.639H15.8874C10.9868 137.639 7.11375 136.227 4.26825 133.404C1.42275 130.424 0 126.738 0 122.346C0 117.954 1.50179 113.562 4.50537 109.17L75.1686 8.94064C77.0656 6.27414 79.4368 4.31347 82.2823 3.05864C85.1278 1.64696 88.1314 0.941124 91.2931 0.941124C96.1937 0.941124 100.462 2.58809 104.098 5.88202C107.734 9.01908 109.552 13.411 109.552 19.0577V109.641H118.325ZM37.2286 109.641H73.5087V57.8789L37.2286 109.641Z" fill="#16B8B2"/>
<path d="M208.34 170.108C188.105 170.108 172.613 162.814 161.864 148.226C151.272 133.639 145.976 112.542 145.976 84.9361C145.976 57.4868 151.272 36.4684 161.864 21.881C172.613 7.29368 188.105 0 208.34 0C228.575 0 243.988 7.29368 254.58 21.881C265.329 36.4684 270.704 57.4868 270.704 84.9361C270.704 112.542 265.329 133.639 254.58 148.226C243.988 162.814 228.575 170.108 208.34 170.108ZM208.34 142.109C217.509 142.109 224.148 137.56 228.259 128.463C232.527 119.365 234.661 104.856 234.661 84.9361C234.661 64.8589 232.527 50.3499 228.259 41.4093C224.148 32.4687 217.509 27.9983 208.34 27.9983C199.171 27.9983 192.453 32.5471 188.185 41.6446C184.074 50.5852 182.019 65.0157 182.019 84.9361C182.019 104.856 184.074 119.365 188.185 128.463C192.453 137.56 199.171 142.109 208.34 142.109Z" fill="#16B8B2"/>
<path d="M402.69 109.641C414.23 109.641 420 114.268 420 123.522C420 132.933 414.23 137.639 402.69 137.639H393.916V151.05C393.916 157.01 392.256 161.559 388.937 164.696C385.617 167.833 381.27 169.402 375.895 169.402C370.52 169.402 366.173 167.833 362.853 164.696C359.533 161.559 357.873 157.01 357.873 151.05V137.639H300.252C295.351 137.639 291.478 136.227 288.633 133.404C285.787 130.424 284.365 126.738 284.365 122.346C284.365 117.954 285.866 113.562 288.87 109.17L359.533 8.94064C361.43 6.27414 363.801 4.31347 366.647 3.05864C369.492 1.64696 372.496 0.941124 375.658 0.941124C380.558 0.941124 384.827 2.58809 388.462 5.88202C392.098 9.01908 393.916 13.411 393.916 19.0577V109.641H402.69ZM321.593 109.641H357.873V57.8789L321.593 109.641Z" fill="#16B8B2"/>
</g>
<defs>
<filter id="filter0_d" x="-10.4837" y="189.64" width="440.968" height="81.1828" filterUnits="userSpaceOnUse" color-interpolation-filters="sRGB">
<feFlood flood-opacity="0" result="BackgroundImageFix"/>
<feColorMatrix in="SourceAlpha" type="matrix" values="0 0 0 0 0 0 0 0 0 0 0 0 0 0 0 0 0 0 127 0"/>
<feOffset dy="4"/>
<feGaussianBlur stdDeviation="7.5"/>
<feColorMatrix type="matrix" values="0 0 0 0 1 0 0 0 0 1 0 0 0 0 1 0 0 0 0.4 0"/>
<feBlend mode="normal" in2="BackgroundImageFix" result="effect1_dropShadow"/>
<feBlend mode="normal" in="SourceGraphic" in2="effect1_dropShadow" result="shape"/>
</filter>
<clipPath id="clip0">
<rect width="420" height="251.82" fill="white"/>
</clipPath>
</defs>
</svg>
