<svg width="380" height="247" viewBox="0 0 380 247" fill="none" xmlns="http://www.w3.org/2000/svg">
<g clip-path="url(#clip0)">
<path d="M0 246.303C0 196.638 20.0178 149.007 55.6497 113.888C91.2816 78.7697 139.609 59.0403 190 59.0403C240.391 59.0403 288.718 78.7697 324.35 113.888C359.982 149.007 380 196.638 380 246.303H0Z" fill="#F2F7F6"/>
<path d="M239.842 210.712L242.271 223.184H196.068L191.3 194.487C191.3 194.487 187.966 194.862 166.576 194.862C142.095 195.392 140.66 152.125 140.66 152.125L120.461 151.904L146.024 99.3659L247.811 99.697C247.811 99.697 257.944 126.562 251.454 150.249C244.964 173.935 234.478 183.207 234.478 183.207L236.686 194.928" fill="white"/>
<path fill-rule="evenodd" clip-rule="evenodd" d="M143.562 98.1681C144.022 97.2231 144.982 96.6248 146.033 96.6282L247.82 96.9593C248.956 96.963 249.972 97.6679 250.373 98.7309L247.811 99.697C250.373 98.7309 250.373 98.7316 250.374 98.7325L250.374 98.7346L250.377 98.7409L250.384 98.7606L250.41 98.8293C250.431 98.8878 250.462 98.9719 250.501 99.0805C250.579 99.2977 250.69 99.6132 250.827 100.02C251.102 100.832 251.484 102.01 251.92 103.493C252.791 106.457 253.88 110.655 254.762 115.611C256.517 125.474 257.492 138.571 254.094 150.972C250.773 163.095 246.41 171.593 242.827 177.103C241.037 179.856 239.444 181.858 238.278 183.191C237.965 183.548 237.683 183.858 237.436 184.12L239.376 194.422C239.656 195.908 238.678 197.339 237.192 197.619C235.706 197.899 234.275 196.921 233.995 195.435L231.788 183.713C231.61 182.769 231.94 181.8 232.658 181.162C232.66 181.16 232.662 181.158 232.665 181.156L234.478 183.207C232.665 181.156 232.664 181.156 232.663 181.157L232.665 181.156C232.674 181.147 232.693 181.129 232.722 181.102C232.78 181.048 232.875 180.956 233.004 180.827C233.262 180.569 233.656 180.158 234.158 179.585C235.16 178.439 236.595 176.643 238.237 174.117C241.52 169.07 245.645 161.089 248.813 149.525C251.905 138.24 251.06 126.061 249.371 116.57C248.531 111.849 247.493 107.85 246.666 105.036C246.361 103.995 246.084 103.118 245.858 102.428L147.734 102.109L124.815 149.214L140.69 149.387C142.154 149.403 143.347 150.569 143.396 152.033C143.396 152.034 143.396 152.033 143.396 152.033L143.397 152.053L143.4 152.133C143.403 152.207 143.408 152.319 143.416 152.468C143.431 152.767 143.458 153.212 143.499 153.782C143.584 154.923 143.731 156.562 143.982 158.53C144.487 162.48 145.404 167.697 147.046 172.863C148.699 178.059 151.024 183.005 154.235 186.578C157.377 190.076 161.329 192.237 166.516 192.125C166.536 192.125 166.556 192.124 166.576 192.124C177.258 192.124 183.412 192.031 186.886 191.938C188.622 191.891 189.681 191.845 190.296 191.812C190.603 191.795 190.795 191.782 190.904 191.773C190.958 191.769 190.99 191.766 191.004 191.765L191 191.766L190.997 191.766L190.995 191.766C191 191.766 191.005 191.765 191.01 191.764C192.45 191.611 193.763 192.607 194 194.038L198.388 220.447H238.948L237.155 211.235C236.866 209.751 237.835 208.314 239.319 208.025C240.803 207.736 242.241 208.705 242.53 210.189L244.958 222.661C245.114 223.464 244.903 224.294 244.383 224.925C243.863 225.556 243.088 225.922 242.271 225.922H196.068C194.729 225.922 193.586 224.954 193.367 223.633L189 197.35C188.458 197.37 187.809 197.39 187.032 197.411C183.495 197.506 177.295 197.6 166.604 197.6C159.566 197.743 154.168 194.697 150.162 190.238C146.218 185.848 143.594 180.076 141.828 174.522C140.052 168.937 139.08 163.37 138.551 159.224C138.329 157.49 138.184 155.993 138.089 154.835L120.431 154.642C119.493 154.632 118.625 154.142 118.132 153.343C117.639 152.545 117.589 151.55 117.999 150.706L143.562 98.1681Z" fill="#828282"/>
<path d="M178.827 83.5602H152.315L155.649 41.5296H175.516L178.827 83.5602Z" fill="white"/>
<path fill-rule="evenodd" clip-rule="evenodd" d="M152.919 41.3131C153.032 39.8895 154.22 38.7918 155.649 38.7918H175.516C176.945 38.7918 178.133 39.8903 178.245 41.3145L181.557 83.3452C181.616 84.1063 181.356 84.8579 180.838 85.4186C180.319 85.9792 179.591 86.298 178.827 86.298H152.315C151.552 86.298 150.823 85.979 150.304 85.418C149.786 84.8571 149.526 84.1051 149.586 83.3438L152.919 41.3131ZM158.178 44.2673L155.279 80.8225H175.865L172.985 44.2673H158.178Z" fill="#828282"/>
<path d="M248.915 75.6795V83.5602H229.048V41.5296H248.915V64.7082" fill="white"/>
<path fill-rule="evenodd" clip-rule="evenodd" d="M226.31 41.5296C226.31 40.0175 227.536 38.7918 229.048 38.7918H248.915C250.427 38.7918 251.653 40.0175 251.653 41.5296V64.7082C251.653 66.2203 250.427 67.446 248.915 67.446C247.403 67.446 246.177 66.2203 246.177 64.7082V44.2673H231.785V80.8225H246.177V75.6795C246.177 74.1675 247.403 72.9417 248.915 72.9417C250.427 72.9417 251.653 74.1675 251.653 75.6795V83.5602C251.653 85.0723 250.427 86.298 248.915 86.298H229.048C227.536 86.298 226.31 85.0723 226.31 83.5602V41.5296Z" fill="#828282"/>
<path d="M192.602 36.7172V21.8828H216.597V83.5602H192.602V48.7922" fill="white"/>
<path fill-rule="evenodd" clip-rule="evenodd" d="M189.864 21.8828C189.864 20.3708 191.09 19.1451 192.602 19.1451H216.597C218.109 19.1451 219.335 20.3708 219.335 21.8828V83.5602C219.335 85.0723 218.109 86.298 216.597 86.298H192.602C191.09 86.298 189.864 85.0723 189.864 83.5602V48.7922C189.864 47.2802 191.09 46.0544 192.602 46.0544C194.114 46.0544 195.34 47.2802 195.34 48.7922V80.8225H213.86V24.6206H195.34V36.7172C195.34 38.2292 194.114 39.455 192.602 39.455C191.09 39.455 189.864 38.2292 189.864 36.7172V21.8828Z" fill="#828282"/>
<path d="M158.364 9.16773C161.653 4.50992 164.611 1 164.611 1C164.611 1 179.843 19.1235 179.843 27.4899C179.843 31.5296 178.238 35.4039 175.381 38.2604C172.525 41.1169 168.651 42.7216 164.611 42.7216C160.571 42.7216 156.697 41.1169 153.84 38.2604C150.984 35.4039 149.379 31.5296 149.379 27.4899C149.752 24.1506 150.869 20.9373 152.646 18.086" fill="#408C8A"/>
<path d="M176.796 39.2779H153.971C151.435 39.2779 149.379 41.3336 149.379 43.8694V46.2094C149.379 48.7453 151.435 50.801 153.971 50.801H176.796C179.332 50.801 181.388 48.7453 181.388 46.2094V43.8694C181.388 41.3336 179.332 39.2779 176.796 39.2779Z" fill="white"/>
<path fill-rule="evenodd" clip-rule="evenodd" d="M153.971 42.0156C152.947 42.0156 152.117 42.8456 152.117 43.8695V46.2094C152.117 47.2332 152.947 48.0632 153.971 48.0632H176.796C177.82 48.0632 178.65 47.2332 178.65 46.2094V43.8695C178.65 42.8456 177.82 42.0156 176.796 42.0156H153.971ZM146.641 43.8695C146.641 39.8216 149.923 36.5401 153.971 36.5401H176.796C180.844 36.5401 184.126 39.8216 184.126 43.8695V46.2094C184.126 50.2573 180.844 53.5387 176.796 53.5387H153.971C149.923 53.5387 146.641 50.2573 146.641 46.2094V43.8695Z" fill="#828282"/>
<path d="M229.048 41.5296H248.915L238.981 10.5585L229.048 41.5296Z" fill="white"/>
<path fill-rule="evenodd" clip-rule="evenodd" d="M238.981 7.82072C240.171 7.82072 241.225 8.58929 241.588 9.72232L251.522 40.6935C251.789 41.5262 251.642 42.4365 251.127 43.143C250.612 43.8496 249.79 44.2674 248.915 44.2674H229.048C228.173 44.2674 227.351 43.8496 226.836 43.143C226.32 42.4365 226.174 41.5262 226.441 40.6935L236.374 9.72232C236.738 8.58929 237.792 7.82072 238.981 7.82072ZM232.801 38.7919H245.162L238.981 19.5225L232.801 38.7919Z" fill="#828282"/>
<path fill-rule="evenodd" clip-rule="evenodd" d="M206.928 35.5473C206.928 34.0353 208.154 32.8095 209.666 32.8095H216.597C218.109 32.8095 219.335 34.0353 219.335 35.5473C219.335 37.0593 218.109 38.285 216.597 38.285H209.666C208.154 38.285 206.928 37.0593 206.928 35.5473Z" fill="#828282"/>
<path fill-rule="evenodd" clip-rule="evenodd" d="M206.928 54.0019C206.928 52.4899 208.154 51.2642 209.666 51.2642H216.597C218.109 51.2642 219.335 52.4899 219.335 54.0019C219.335 55.5139 218.109 56.7397 216.597 56.7397H209.666C208.154 56.7397 206.928 55.5139 206.928 54.0019Z" fill="#828282"/>
<path fill-rule="evenodd" clip-rule="evenodd" d="M206.928 72.4787C206.928 70.9666 208.154 69.7409 209.666 69.7409H216.597C218.109 69.7409 219.335 70.9666 219.335 72.4787C219.335 73.9907 218.109 75.2164 216.597 75.2164H209.666C208.154 75.2164 206.928 73.9907 206.928 72.4787Z" fill="#828282"/>
</g>
<defs>
<clipPath id="clip0">
<rect width="380" height="246.398" fill="white"/>
</clipPath>
</defs>
</svg>
