<svg width="380" height="247" viewBox="0 0 380 247" fill="none" xmlns="http://www.w3.org/2000/svg">
<g clip-path="url(#clip0)">
<path d="M0 246.357C0 196.692 20.0178 149.061 55.6497 113.943C91.2816 78.8245 139.609 59.0951 190 59.0951C240.391 59.0951 288.718 78.8245 324.35 113.943C359.982 149.061 380 196.692 380 246.357H0Z" fill="#F2F7F6"/>
<g clip-path="url(#clip1)">
<path d="M290.996 151.082C286.216 120.453 257.929 116.475 245.18 108.519C232.63 100.563 216.096 45.8675 168.486 65.1602C120.876 84.4529 110.119 135.569 130.04 177.137C149.96 218.905 199.96 236.607 241.594 216.717C264.901 205.778 295.777 181.712 290.996 151.082ZM261.913 172.364C254.343 172.364 248.168 166.198 248.168 158.64C248.168 151.082 254.343 144.917 261.913 144.917C269.482 144.917 275.658 151.082 275.658 158.64C275.658 166.198 269.482 172.364 261.913 172.364Z" fill="white"/>
<path fill-rule="evenodd" clip-rule="evenodd" d="M242.385 101.888C244.089 104.053 245.482 105.467 246.638 106.202C249.326 107.878 252.789 109.383 256.845 111.146C257.27 111.331 257.701 111.518 258.139 111.709C262.664 113.682 267.711 115.952 272.532 118.98C282.286 125.105 291.159 134.374 293.701 150.66C296.264 167.075 289.22 181.543 278.868 193.11C268.524 204.668 254.646 213.614 242.764 219.192C199.765 239.728 148.139 221.443 127.569 178.318C107.151 135.706 118.022 82.6554 167.458 62.6228C179.864 57.5954 190.467 57.3149 199.578 60.0554C208.634 62.7792 215.947 68.406 221.964 74.735C227.83 80.9039 232.595 87.8854 236.575 93.7174L236.858 94.1312C238.9 97.1217 240.707 99.7548 242.385 101.888ZM198.001 65.2988C190.23 62.9613 180.912 63.0786 169.514 67.6975C123.731 86.25 113.088 135.429 132.508 175.954L132.511 175.959C151.781 216.365 200.148 233.483 240.414 214.247L240.431 214.239C251.854 208.878 265.064 200.323 274.788 189.458C284.506 178.599 290.51 165.719 288.291 151.505C286.053 137.161 278.392 129.126 269.62 123.616C265.178 120.827 260.465 118.696 255.951 116.728C255.503 116.533 255.055 116.339 254.609 116.145C250.651 114.427 246.789 112.75 243.73 110.842L243.714 110.831C241.734 109.576 239.867 107.542 238.082 105.273C236.268 102.968 234.353 100.173 232.336 97.2185L232.135 96.9246C228.104 91.0199 223.553 84.352 217.996 78.5079C212.36 72.58 205.828 67.653 198.001 65.2988ZM261.913 147.654C255.851 147.654 250.905 152.598 250.905 158.64C250.905 164.682 255.851 169.626 261.913 169.626C267.974 169.626 272.92 164.682 272.92 158.64C272.92 152.598 267.974 147.654 261.913 147.654ZM245.43 158.64C245.43 149.566 252.835 142.179 261.913 142.179C270.99 142.179 278.395 149.566 278.395 158.64C278.395 167.714 270.99 175.102 261.913 175.102C252.835 175.102 245.43 167.714 245.43 158.64Z" fill="#828282"/>
<path d="M179.801 101.083C185.962 101.083 190.956 96.0964 190.956 89.945C190.956 83.7936 185.962 78.8069 179.801 78.8069C173.64 78.8069 168.646 83.7936 168.646 89.945C168.646 96.0964 173.64 101.083 179.801 101.083Z" fill="#5FA7AF"/>
<path d="M157.899 127.365C164.06 127.365 169.054 122.379 169.054 116.227C169.054 110.076 164.06 105.089 157.899 105.089C151.738 105.089 146.744 110.076 146.744 116.227C146.744 122.379 151.738 127.365 157.899 127.365Z" fill="#408C8A"/>
<path d="M154.94 161.911C161.101 161.911 166.096 156.925 166.096 150.773C166.096 144.622 161.101 139.635 154.94 139.635C148.779 139.635 143.785 144.622 143.785 150.773C143.785 156.925 148.779 161.911 154.94 161.911Z" fill="#CAE5E3"/>
<path d="M196.175 233.226C191.594 236.607 187.61 238.993 187.61 238.993C187.61 238.993 186.016 215.723 190.199 207.369C194.382 199.016 202.749 194.839 208.526 197.822C214.502 200.806 215.896 209.955 211.514 218.309C210.319 220.695 207.53 223.679 204.542 226.463" fill="white"/>
<path fill-rule="evenodd" clip-rule="evenodd" d="M200.017 200.779C197.243 202.205 194.503 204.89 192.647 208.595C191.813 210.261 191.173 212.909 190.744 216.19C190.324 219.407 190.134 222.988 190.073 226.364C190.02 229.262 190.063 231.975 190.128 234.128C191.429 233.257 192.953 232.201 194.55 231.023C195.766 230.125 197.48 230.383 198.378 231.6C199.276 232.817 199.018 234.531 197.801 235.428C195.455 237.159 193.267 238.633 191.666 239.673C190.864 240.194 190.208 240.608 189.749 240.893C189.519 241.036 189.339 241.146 189.215 241.222C189.153 241.26 189.105 241.289 189.071 241.309L189.032 241.333L189.017 241.342C189.017 241.342 189.016 241.342 187.61 238.994C184.878 239.181 184.878 239.18 184.878 239.18L184.877 239.159L184.873 239.105C184.87 239.057 184.866 238.988 184.86 238.899C184.849 238.72 184.834 238.459 184.816 238.126C184.779 237.459 184.733 236.501 184.69 235.326C184.605 232.98 184.535 229.759 184.598 226.264C184.662 222.778 184.858 218.975 185.315 215.48C185.764 212.048 186.494 208.654 187.751 206.143C190.079 201.495 193.614 197.915 197.513 195.91C201.389 193.917 205.88 193.383 209.765 195.381C213.742 197.374 215.971 201.314 216.613 205.651C217.254 209.99 216.368 214.938 213.95 219.558C212.503 222.432 209.373 225.704 206.408 228.466C205.302 229.497 203.57 229.436 202.539 228.33C201.508 227.223 201.569 225.491 202.675 224.46C205.679 221.661 208.117 218.977 209.066 217.083C209.074 217.067 209.082 217.052 209.09 217.037C211.045 213.309 211.649 209.516 211.196 206.452C210.743 203.387 209.292 201.265 207.303 200.272L207.27 200.255C205.382 199.28 202.808 199.344 200.017 200.779ZM187.61 238.994L184.878 239.18C184.943 240.13 185.498 240.979 186.342 241.42C187.186 241.861 188.2 241.831 189.017 241.342L187.61 238.994Z" fill="#828282"/>
<path d="M207.729 199.613C205.14 198.22 204.143 194.839 205.538 191.657L258.725 79.0828C263.108 69.9336 270.678 64.1657 275.658 66.7513C280.638 69.337 280.439 78.8839 275.459 87.6352L215.498 196.828C213.705 199.811 210.319 201.005 207.729 199.613Z" fill="white"/>
<path fill-rule="evenodd" clip-rule="evenodd" d="M261.198 80.2592C261.197 80.2613 261.196 80.2634 261.195 80.2655L208.032 192.788C207.112 194.921 207.945 196.62 209.026 197.201C210.005 197.728 211.886 197.486 213.127 195.459L273.059 86.3174L273.079 86.2811C275.384 82.2304 276.513 78.1052 276.556 74.8453C276.6 71.4565 275.524 69.7664 274.396 69.1811C273.29 68.6069 271.331 68.6971 268.594 70.7186C265.964 72.6617 263.237 76.003 261.198 80.2592ZM265.341 66.3144C268.73 63.8111 273.045 62.3101 276.919 64.3216C280.772 66.3219 282.086 70.6981 282.031 74.917C281.974 79.259 280.517 84.2753 277.849 88.9706L217.898 198.146C217.881 198.177 217.863 198.208 217.845 198.238C215.5 202.14 210.626 204.278 206.433 202.024C202.34 199.823 201.183 194.774 203.03 190.558C203.041 190.534 203.051 190.511 203.063 190.487L256.256 77.9C258.599 73.0101 261.847 68.8953 265.341 66.3144Z" fill="#828282"/>
<path d="M213.108 202.397L202.351 196.828C200.757 196.032 200.159 194.242 200.956 192.651L201.554 191.458C202.351 189.867 204.144 189.27 205.737 190.066L216.494 195.635C218.088 196.43 218.685 198.22 217.889 199.811L217.291 201.204C216.494 202.596 214.701 203.193 213.108 202.397Z" fill="white"/>
<path fill-rule="evenodd" clip-rule="evenodd" d="M204.211 192.464C204.174 192.477 204.085 192.517 204.002 192.684L203.404 193.877C203.321 194.043 203.342 194.137 203.354 194.171C203.365 194.205 203.405 194.294 203.574 194.379L203.609 194.397L214.342 199.953C214.504 200.031 214.628 200.023 214.713 199.998C214.778 199.978 214.83 199.945 214.869 199.905L215.373 198.732C215.394 198.682 215.417 198.634 215.441 198.586C215.524 198.419 215.502 198.326 215.491 198.292C215.479 198.257 215.44 198.168 215.271 198.084L215.235 198.066L204.502 192.509C204.341 192.432 204.248 192.452 204.211 192.464ZM199.106 190.232C200.58 187.288 204.017 186.147 206.96 187.616L206.996 187.634L217.738 193.195C220.64 194.658 221.787 198.034 220.377 200.955L219.807 202.284C219.766 202.38 219.719 202.473 219.667 202.564C218.142 205.229 214.764 206.284 211.885 204.847L211.849 204.828L201.107 199.267C198.177 197.791 197.036 194.365 198.508 191.425L199.106 190.232Z" fill="#828282"/>
<path d="M120.876 228.85C138.809 228.85 153.346 214.335 153.346 196.43C153.346 178.525 138.809 164.01 120.876 164.01C102.943 164.01 88.4059 178.525 88.4059 196.43C88.4059 214.335 102.943 228.85 120.876 228.85Z" fill="white"/>
<path fill-rule="evenodd" clip-rule="evenodd" d="M120.876 166.748C104.451 166.748 91.1437 180.041 91.1437 196.43C91.1437 212.819 104.451 226.112 120.876 226.112C137.301 226.112 150.609 212.819 150.609 196.43C150.609 180.041 137.301 166.748 120.876 166.748ZM85.6682 196.43C85.6682 177.009 101.435 161.273 120.876 161.273C140.317 161.273 156.084 177.009 156.084 196.43C156.084 215.851 140.317 231.588 120.876 231.588C101.435 231.588 85.6682 215.851 85.6682 196.43Z" fill="#828282"/>
<path d="M133.02 215.355C132.821 215.355 132.821 215.355 132.622 215.355C132.423 215.355 132.423 215.156 132.224 215.156C128.638 212.769 124.853 210.581 121.267 208.195C121.068 207.996 120.869 207.996 120.67 208.195C116.885 210.581 113.1 212.968 109.116 215.355C108.917 215.355 108.917 215.355 108.717 215.355C108.12 214.957 108.12 214.758 108.319 214.161C108.518 213.167 108.917 212.172 109.116 211.178C110.112 207.996 110.909 205.012 111.905 201.83C111.905 201.631 111.905 201.432 111.705 201.233C111.506 201.034 111.108 200.835 110.909 200.637C107.721 198.051 104.335 195.266 101.148 192.681C100.948 192.482 100.749 192.283 100.749 191.885C100.948 191.487 101.148 191.487 101.546 191.487C101.944 191.487 102.144 191.487 102.542 191.487C106.526 191.289 110.709 191.09 114.694 190.891C115.092 190.891 115.092 190.692 115.291 190.493C116.885 186.316 118.478 182.338 120.072 178.162C120.271 177.963 120.47 177.565 120.67 177.366C120.869 177.366 121.068 177.366 121.068 177.366C121.267 177.565 121.466 177.764 121.666 178.162C122.463 180.151 123.259 182.139 124.056 184.128C124.853 186.316 125.65 188.305 126.447 190.493C126.646 190.692 126.646 190.891 127.044 190.891C127.243 190.891 127.642 190.891 127.841 190.891C131.825 191.09 136.008 191.289 139.992 191.487C140.391 191.487 140.789 191.487 140.789 191.885C140.988 192.283 140.789 192.482 140.391 192.88C137.004 195.664 133.419 198.449 130.032 201.233C129.634 201.432 129.634 201.631 129.833 202.029C131.028 206.007 132.224 210.184 133.419 214.161C133.618 214.758 133.618 214.957 133.02 215.355Z" fill="#408C8A"/>
</g>
</g>
<defs>
<clipPath id="clip0">
<rect width="380" height="246.398" fill="white"/>
</clipPath>
<clipPath id="clip1">
<rect width="209.164" height="183.977" fill="white" transform="translate(85.4179 58)"/>
</clipPath>
</defs>
</svg>
