<svg width="80" height="80" viewBox="0 0 80 80" fill="none" xmlns="http://www.w3.org/2000/svg">
<path d="M78 21.3518C78 33.6209 78 45.8565 78 58.1255C75.9396 62.973 74.1156 64.143 68.6098 64.143C49.12 64.143 29.664 64.143 10.1742 64.143C9.39733 64.143 8.58667 64.1096 7.84356 63.9424C4.66844 63.2738 2.97956 61.034 2 58.1255C2 45.7562 2 33.3868 2 21.0175C3.99289 16.2369 5.88444 15 11.2213 15C30.6773 15 50.1333 15 69.5893 15C70.4338 15 71.2782 15.0334 72.0889 15.2006C75.4329 15.9361 77.1556 18.2762 78 21.3518ZM68.272 20.0146C49.3227 20.0146 30.7111 20.0146 11.7618 20.0146C12.3022 20.5829 12.6062 20.9172 12.944 21.2515C21.4222 29.6426 29.9004 38.0337 38.3787 46.4248C39.8987 47.9292 40.1351 47.9292 41.6551 46.4248C50.1333 38.0337 58.6116 29.6426 67.0898 21.2515C67.3938 20.9172 67.7316 20.5829 68.272 20.0146ZM13.2142 59.095C31.1502 59.095 48.8836 59.095 66.5493 59.095C61.4151 54.047 56.3484 48.999 51.1467 43.8506C49.3564 45.6559 47.4649 47.5614 45.5733 49.467C45.0667 49.9684 44.56 50.5033 43.9858 50.9714C41.3849 53.1444 38.0747 53.0106 35.4738 50.5368C33.1431 48.2969 30.9138 45.9902 28.6844 43.7838C23.4827 48.9655 18.416 53.9467 13.2142 59.095ZM7.168 57.6575C13.1804 51.7068 19.024 45.9568 24.5298 40.5076C18.72 34.7241 12.8427 28.9071 7.168 23.2574C7.168 34.4232 7.168 45.9902 7.168 57.6575ZM55.6729 40.0061C61.3813 45.6559 67.2249 51.4394 72.8658 57.0223C72.8658 45.8899 72.8658 34.3563 72.8658 22.9565C67.0222 28.7734 61.1787 34.5569 55.6729 40.0061Z" fill="#2A2A2A"/>
</svg>
