<svg width="80" height="80" viewBox="0 0 80 80" fill="none" xmlns="http://www.w3.org/2000/svg">
<path d="M42.0442 77.9855C40.6741 77.9855 39.2728 77.9855 37.9027 77.9855C37.6536 77.9231 37.4357 77.8608 37.1865 77.8608C33.3565 77.6115 29.651 76.8324 26.1324 75.3365C13.1476 69.8828 5.26955 60.2219 2.59163 46.3851C2.31139 44.9515 2.18683 43.518 2 42.0533C2 40.6821 2 39.2797 2 37.9085C2.03114 37.7215 2.09342 37.5345 2.12455 37.3475C2.4048 35.4153 2.52936 33.452 2.96529 31.551C7.69835 11.1697 27.5336 -1.48293 47.9916 2.84888C70.7228 7.64815 83.9878 32.1743 75.3313 53.7398C70.0688 66.8599 60.2602 74.7132 46.3724 77.4245C44.94 77.6738 43.4765 77.7985 42.0442 77.9855ZM6.70192 39.9965C6.70192 58.3209 21.5861 73.2485 39.8333 73.2485C58.3608 73.2485 73.2138 58.3833 73.2138 39.8718C73.2138 21.5785 58.2673 6.68206 39.9267 6.68206C21.5861 6.68206 6.70192 21.6097 6.70192 39.9965Z" fill="#2A2A2A"/>
<path d="M52.3197 63.7124C49.2993 63.6501 46.2788 62.5905 43.383 61.0946C38.7122 58.6638 34.6953 55.3292 30.9275 51.7142C26.6616 47.6317 22.7381 43.2687 19.7177 38.1267C18.1607 35.4777 16.9775 32.673 16.417 29.6189C15.2337 23.0433 19.3751 17.2467 25.9454 16.3118C27.1909 16.1248 28.2185 16.4988 28.9035 17.5584C29.2461 18.0882 29.5574 18.6803 29.7754 19.2724C30.6784 21.6097 31.5503 23.9782 32.4222 26.3467C32.5779 26.783 32.7336 27.2504 32.7959 27.6867C33.0138 29.2138 32.5467 30.0552 31.1767 30.7408C30.4916 31.0836 29.8377 31.4576 29.1215 31.7692C28.2496 32.1432 27.7514 32.8599 27.8137 33.7325C27.8448 34.6986 27.9382 35.7582 28.343 36.5996C31.706 43.2064 36.6882 48.255 43.3207 51.5896C44.1614 52.0259 45.2201 52.0882 46.1854 52.1193C47.0573 52.1505 47.7735 51.683 48.1472 50.8105C48.4274 50.1248 48.8011 49.4704 49.1436 48.816C49.9532 47.2266 51.0119 46.6656 52.7245 47.2266C55.6515 48.2238 58.5163 49.3769 61.381 50.4677C61.7236 50.5923 62.0349 50.8105 62.3463 51.0286C63.3739 51.7142 63.7787 52.6803 63.6542 53.8957C63.0625 59.4741 58.236 63.7435 52.3197 63.7124Z" fill="#2A2A2A"/>
</svg>
