<svg width="380" height="247" viewBox="0 0 380 247" fill="none" xmlns="http://www.w3.org/2000/svg">
<g clip-path="url(#clip0)">
<path d="M0 246.494C0 196.829 20.0178 149.198 55.6497 114.08C91.2816 78.9612 139.609 59.2319 190 59.2319C240.391 59.2319 288.718 78.9612 324.35 114.08C359.982 149.198 380 196.829 380 246.494H0Z" fill="#F2F7F6"/>
<path d="M273.681 65.0835L146.826 100.761L168.831 179.002L295.686 143.324L273.681 65.0835Z" fill="white"/>
<path fill-rule="evenodd" clip-rule="evenodd" d="M145.249 101.205C145.004 100.334 145.511 99.4295 146.382 99.1845L273.237 63.5066C274.108 63.2616 275.013 63.7691 275.258 64.64L297.263 142.881C297.508 143.752 297 144.656 296.129 144.901L169.274 180.579C168.403 180.824 167.499 180.317 167.254 179.446L145.249 101.205ZM148.846 101.895L169.964 176.982L293.665 142.191L272.547 67.104L148.846 101.895Z" fill="#404040"/>
<path d="M229.341 3.38175L153.724 24.8646L172.716 91.7111L248.332 70.2283L229.341 3.38175Z" fill="white"/>
<path fill-rule="evenodd" clip-rule="evenodd" d="M152.144 25.3135C151.896 24.4408 152.403 23.5324 153.275 23.2845L228.892 1.80161C229.764 1.55368 230.673 2.06014 230.921 2.93282L249.912 69.7793C250.16 70.652 249.654 71.5604 248.781 71.8084L173.164 93.2912C172.292 93.5391 171.383 93.0327 171.135 92.16L152.144 25.3135ZM155.753 25.9958L173.847 89.6821L246.303 69.097L228.209 5.41077L155.753 25.9958Z" fill="#404040"/>
<path d="M221.308 79.4078L200.561 85.3019L215.143 136.626L235.889 130.732L221.308 79.4078Z" fill="#408C8A"/>
<path d="M201.922 11.1921L181.175 17.0861L191.618 53.8432L212.364 47.9492L201.922 11.1921Z" fill="#408C8A"/>
<path fill-rule="evenodd" clip-rule="evenodd" d="M73.1218 10.6028C73.8073 9.25511 75.4555 8.71834 76.8032 9.40388L106.053 24.2824C106.732 24.628 107.237 25.2413 107.445 25.9747L157.378 201.802C157.791 203.256 156.947 204.77 155.493 205.183C154.038 205.596 152.524 204.752 152.111 203.297L102.504 28.6207L74.3207 14.2843C72.973 13.5987 72.4362 11.9505 73.1218 10.6028Z" fill="#828282"/>
<path fill-rule="evenodd" clip-rule="evenodd" d="M316.053 156.724C316.466 158.179 315.622 159.693 314.168 160.106L155.493 205.183C154.038 205.596 152.524 204.752 152.111 203.298C151.698 201.843 152.542 200.329 153.997 199.916L312.671 154.839C314.126 154.426 315.64 155.27 316.053 156.724Z" fill="#828282"/>
<path fill-rule="evenodd" clip-rule="evenodd" d="M144.197 101.501C143.789 100.049 144.635 98.5415 146.086 98.1332L272.941 62.4553C274.393 62.047 275.901 62.8928 276.309 64.3443L298.314 142.585C298.722 144.036 297.877 145.544 296.425 145.952L169.57 181.63C168.118 182.039 166.611 181.193 166.203 179.741L144.197 101.501ZM150.193 102.651L170.72 175.635L292.318 141.435L271.792 68.4509L150.193 102.651Z" fill="#828282"/>
<path fill-rule="evenodd" clip-rule="evenodd" d="M151.091 25.6128C150.678 24.1583 151.522 22.6443 152.976 22.231L228.592 0.748201C230.047 0.334985 231.561 1.17908 231.974 2.63354L250.965 69.4801C251.379 70.9345 250.535 72.4486 249.08 72.8618L173.464 94.3446C172.009 94.7578 170.495 93.9137 170.082 92.4593L151.091 25.6128ZM157.106 26.7499L174.601 88.3294L244.95 68.3429L227.455 6.76346L157.106 26.7499Z" fill="#828282"/>
<path d="M163.045 232.88C181.101 232.88 195.738 218.243 195.738 200.187C195.738 182.132 181.101 167.494 163.045 167.494C144.989 167.494 130.352 182.132 130.352 200.187C130.352 218.243 144.989 232.88 163.045 232.88Z" fill="white"/>
<path fill-rule="evenodd" clip-rule="evenodd" d="M163.045 170.232C146.501 170.232 133.09 183.644 133.09 200.187C133.09 216.731 146.501 230.143 163.045 230.143C179.589 230.143 193 216.731 193 200.187C193 183.644 179.589 170.232 163.045 170.232ZM127.614 200.187C127.614 180.62 143.477 164.757 163.045 164.757C182.613 164.757 198.476 180.62 198.476 200.187C198.476 219.755 182.613 235.618 163.045 235.618C143.477 235.618 127.614 219.755 127.614 200.187Z" fill="#828282"/>
<path d="M163.045 215.662C171.591 215.662 178.52 208.734 178.52 200.187C178.52 191.641 171.591 184.713 163.045 184.713C154.499 184.713 147.57 191.641 147.57 200.187C147.57 208.734 154.499 215.662 163.045 215.662Z" fill="white"/>
<path fill-rule="evenodd" clip-rule="evenodd" d="M163.045 187.451C156.011 187.451 150.308 193.153 150.308 200.187C150.308 207.222 156.011 212.924 163.045 212.924C170.079 212.924 175.782 207.222 175.782 200.187C175.782 193.153 170.079 187.451 163.045 187.451ZM144.833 200.187C144.833 190.129 152.987 181.975 163.045 181.975C173.103 181.975 181.257 190.129 181.257 200.187C181.257 210.246 173.103 218.4 163.045 218.4C152.987 218.4 144.833 210.246 144.833 200.187Z" fill="#828282"/>
</g>
<defs>
<clipPath id="clip0">
<rect width="380" height="246.398" fill="white"/>
</clipPath>
</defs>
</svg>
