<svg width="274" height="52" viewBox="0 0 274 52" fill="none" xmlns="http://www.w3.org/2000/svg">
<path d="M47.8275 21.9705C47.8275 9.6918 38.728 0 27.5202 0H8.08221C3.84691 0 0 3.67997 0 7.85181V7.90647V36.6357V36.6539C0 40.8258 3.9024 43.941 8.08221 43.941H11.7072C12.2065 43.941 12.484 43.9592 12.484 43.4674V13.0438C12.484 12.552 13.1868 12.2969 13.6861 12.2969H28.6299C28.6299 12.2969 19.8634 19.839 19.2715 20.3309C18.6797 20.8046 18.7167 21.1325 18.7167 21.8612V50.973C18.7167 51.8657 18.6982 51.7928 19.475 51.1552C20.1593 50.5905 26.1146 45.6717 27.4832 43.9228H27.5017C38.728 43.9228 47.8275 34.231 47.8275 21.9705Z" fill="#F5821F"/>
<path d="M61.1807 42.4654C61.0882 42.3925 60.9957 42.265 60.9957 42.1011C60.9957 41.8642 61.1992 41.6638 61.4396 41.6638C61.5321 41.6638 61.6246 41.682 61.6985 41.7367C62.4013 42.2104 63.1226 42.4472 63.8809 42.4472C64.6947 42.4472 65.305 42.0282 65.305 41.3723V41.3541C65.305 40.6801 64.4912 40.4068 63.585 40.17C62.5123 39.8603 61.3286 39.4959 61.3286 38.2571C61.3286 37.0912 62.3089 36.326 63.659 36.326C64.3803 36.326 65.194 36.5447 65.8414 36.8908C65.9708 36.9637 66.1003 37.1094 66.1003 37.3098C66.1003 37.5466 65.8968 37.747 65.6564 37.747C65.5639 37.747 65.49 37.7288 65.4345 37.6924C64.8611 37.3645 64.2323 37.1641 63.6405 37.1641C62.8267 37.1641 62.3089 37.5831 62.3089 38.1478V38.166C62.3089 38.8037 63.1596 39.0587 64.0659 39.332C65.1201 39.6417 66.2667 40.0425 66.2667 41.263V41.2813C66.2667 42.5565 65.194 43.3034 63.8254 43.3034C62.9192 43.3216 61.9205 42.9937 61.1807 42.4654Z" fill="#16B8B2"/>
<path d="M74.2195 42.7569C74.2195 43.0302 74.0161 43.267 73.7202 43.267C73.4427 43.267 73.2208 43.0484 73.2208 42.7569V42.0282C72.7584 42.7569 72.0556 43.3399 70.872 43.3399C69.2074 43.3399 68.2457 42.2468 68.2457 40.6437V36.8908C68.2457 36.5993 68.4491 36.3807 68.7451 36.3807C69.0225 36.3807 69.2629 36.5993 69.2629 36.8908V40.3886C69.2629 41.6456 69.9472 42.429 71.1679 42.429C72.333 42.429 73.2208 41.5728 73.2208 40.3158V36.8908C73.2208 36.5993 73.4242 36.3807 73.7202 36.3807C73.9976 36.3807 74.2195 36.5993 74.2195 36.8908V42.7569Z" fill="#16B8B2"/>
<path d="M76.7163 36.8907C76.7163 36.5992 76.9382 36.3806 77.2157 36.3806C77.5116 36.3806 77.7335 36.5992 77.7335 36.8907V37.8016C78.2884 37 79.1021 36.3077 80.3598 36.3077C82.0058 36.3077 83.6333 37.583 83.6333 39.8055V39.8237C83.6333 42.0281 82.0243 43.3398 80.3598 43.3398C79.0836 43.3398 78.2699 42.6657 77.7335 41.9006V44.8336C77.7335 45.1251 77.5301 45.3437 77.2342 45.3437C76.9382 45.3437 76.7163 45.1251 76.7163 44.8336V36.8907ZM82.5976 39.842V39.8055C82.5976 38.2024 81.488 37.2004 80.1748 37.2004C78.8987 37.2004 77.6965 38.257 77.6965 39.8055V39.8237C77.6965 41.3905 78.8987 42.4289 80.1748 42.4289C81.5064 42.4289 82.5976 41.4633 82.5976 39.842Z" fill="#16B8B2"/>
<path d="M85.7232 36.8907C85.7232 36.5992 85.9452 36.3806 86.2226 36.3806C86.5185 36.3806 86.7404 36.5992 86.7404 36.8907V37.8016C87.2953 37 88.1091 36.3077 89.3667 36.3077C91.0127 36.3077 92.6403 37.583 92.6403 39.8055V39.8237C92.6403 42.0281 91.0312 43.3398 89.3667 43.3398C88.0906 43.3398 87.2768 42.6657 86.7404 41.9006V44.8336C86.7404 45.1251 86.537 45.3437 86.2411 45.3437C85.9452 45.3437 85.7232 45.1251 85.7232 44.8336V36.8907ZM91.5861 39.842V39.8055C91.5861 38.2024 90.4764 37.2004 89.1633 37.2004C87.8871 37.2004 86.685 38.257 86.685 39.8055V39.8237C86.685 41.3905 87.8871 42.4289 89.1633 42.4289C90.4949 42.4289 91.5861 41.4633 91.5861 39.842Z" fill="#16B8B2"/>
<path d="M94.8042 34.1035C94.8042 33.8302 95.0261 33.5934 95.3035 33.5934C95.5994 33.5934 95.8214 33.8302 95.8214 34.1035V42.7569C95.8214 43.0484 95.5994 43.267 95.322 43.267C95.0261 43.267 94.8042 43.0484 94.8042 42.7569V34.1035Z" fill="#16B8B2"/>
<path d="M98.4106 34.3221C98.4106 33.9942 98.6696 33.7938 99.0025 33.7938C99.3539 33.7938 99.6128 33.9942 99.6128 34.3221V34.4861C99.6128 34.7958 99.3539 35.0144 99.0025 35.0144C98.6696 35.0144 98.4106 34.7958 98.4106 34.4861V34.3221ZM98.5031 36.8908C98.5031 36.6176 98.7251 36.3807 99.0025 36.3807C99.2984 36.3807 99.5203 36.5993 99.5203 36.8908V42.7569C99.5203 43.0484 99.3169 43.267 99.021 43.267C98.7251 43.267 98.5031 43.0484 98.5031 42.7569V36.8908Z" fill="#16B8B2"/>
<path d="M105.087 43.358C103.201 43.358 101.666 41.937 101.666 39.842V39.8056C101.666 37.8563 103.053 36.2896 104.958 36.2896C106.992 36.2896 108.139 37.9291 108.139 39.7145C108.139 39.9877 107.917 40.1881 107.658 40.1881H102.701C102.849 41.6455 103.904 42.4836 105.124 42.4836C105.975 42.4836 106.604 42.1556 107.103 41.7002C107.177 41.6273 107.27 41.5909 107.399 41.5909C107.658 41.5909 107.843 41.7913 107.843 42.0281C107.843 42.1374 107.788 42.2649 107.677 42.356C107.029 42.939 106.252 43.358 105.087 43.358ZM107.122 39.4412C107.011 38.2206 106.308 37.1458 104.939 37.1458C103.737 37.1458 102.849 38.1295 102.701 39.4412H107.122Z" fill="#16B8B2"/>
<path d="M110.136 36.8908C110.136 36.6175 110.358 36.3807 110.636 36.3807C110.932 36.3807 111.154 36.5993 111.154 36.8908V38.1478C111.653 37.0183 112.652 36.3442 113.521 36.3442C113.817 36.3442 114.02 36.5629 114.02 36.8543C114.02 37.1276 113.835 37.328 113.576 37.3644C112.245 37.5284 111.154 38.4939 111.154 40.4432V42.7386C111.154 43.0119 110.95 43.2487 110.654 43.2487C110.358 43.2487 110.136 43.0301 110.136 42.7386V36.8908Z" fill="#16B8B2"/>
<path d="M119.883 34.1035C119.883 33.812 120.105 33.5934 120.382 33.5934C120.678 33.5934 120.9 33.812 120.9 34.1035V37.8017C121.455 37.0001 122.269 36.3078 123.527 36.3078C125.173 36.3078 126.8 37.5831 126.8 39.8056V39.8238C126.8 42.0282 125.173 43.3398 123.527 43.3398C122.25 43.3398 121.437 42.6658 120.9 41.9006V42.7569C120.9 43.0301 120.697 43.267 120.401 43.267C120.105 43.267 119.883 43.0301 119.883 42.7569V34.1035ZM125.764 39.842V39.8056C125.764 38.2025 124.655 37.2005 123.342 37.2005C122.065 37.2005 120.863 38.2571 120.863 39.8056V39.8238C120.863 41.3905 122.065 42.429 123.342 42.429C124.673 42.429 125.764 41.4634 125.764 39.842Z" fill="#16B8B2"/>
<path d="M131.886 43.358C130 43.358 128.465 41.937 128.465 39.842V39.8056C128.465 37.8563 129.852 36.2896 131.757 36.2896C133.791 36.2896 134.938 37.9291 134.938 39.7145C134.938 39.9877 134.716 40.1881 134.457 40.1881H129.5C129.648 41.6455 130.703 42.4836 131.923 42.4836C132.774 42.4836 133.403 42.1556 133.902 41.7002C133.976 41.6273 134.069 41.5909 134.198 41.5909C134.457 41.5909 134.642 41.7913 134.642 42.0281C134.642 42.1374 134.586 42.2649 134.475 42.356C133.828 42.939 133.051 43.358 131.886 43.358ZM133.921 39.4412C133.81 38.2206 133.088 37.1458 131.738 37.1458C130.555 37.1458 129.648 38.1295 129.519 39.4412H133.921Z" fill="#16B8B2"/>
<path d="M136.935 36.8908C136.935 36.6175 137.157 36.3807 137.435 36.3807C137.731 36.3807 137.952 36.5993 137.952 36.8908V38.1478C138.452 37.0183 139.451 36.3442 140.32 36.3442C140.616 36.3442 140.819 36.5629 140.819 36.8543C140.819 37.1276 140.634 37.328 140.375 37.3644C139.044 37.5284 137.952 38.4939 137.952 40.4432V42.7386C137.952 43.0119 137.749 43.2487 137.453 43.2487C137.157 43.2487 136.935 43.0301 136.935 42.7386V36.8908Z" fill="#16B8B2"/>
<path d="M142.132 42.4654C142.04 42.3925 141.947 42.265 141.947 42.1011C141.947 41.8642 142.151 41.6638 142.391 41.6638C142.484 41.6638 142.576 41.682 142.65 41.7367C143.353 42.2104 144.093 42.4472 144.833 42.4472C145.646 42.4472 146.257 42.0282 146.257 41.3723V41.3541C146.257 40.6801 145.443 40.4068 144.555 40.17C143.482 39.8603 142.28 39.4959 142.28 38.2571C142.28 37.0912 143.26 36.326 144.611 36.326C145.332 36.326 146.127 36.5447 146.793 36.8908C146.922 36.9637 147.052 37.1094 147.052 37.3098C147.052 37.5466 146.848 37.747 146.608 37.747C146.516 37.747 146.442 37.7288 146.386 37.6924C145.813 37.3645 145.184 37.1641 144.592 37.1641C143.778 37.1641 143.26 37.5831 143.26 38.1478V38.166C143.26 38.8037 144.111 39.0587 145.017 39.332C146.072 39.6417 147.218 40.0425 147.218 41.263V41.2813C147.218 42.5565 146.146 43.3034 144.777 43.3034C143.871 43.3216 142.872 42.9937 142.132 42.4654Z" fill="#16B8B2"/>
<path d="M148.79 41.2266V41.2084C148.79 39.7874 149.993 39.0222 151.713 39.0222C152.582 39.0222 153.211 39.1498 153.821 39.3137V39.0769C153.821 37.8563 153.063 37.2369 151.787 37.2369C151.102 37.2369 150.51 37.4009 150.011 37.6195C149.937 37.6377 149.882 37.6559 149.826 37.6559C149.586 37.6559 149.382 37.4555 149.382 37.2187C149.382 37.0001 149.53 36.8543 149.66 36.7997C150.344 36.5082 151.028 36.3442 151.898 36.3442C152.859 36.3442 153.618 36.5993 154.117 37.0912C154.579 37.5466 154.82 38.2024 154.82 39.0587V42.7569C154.82 43.0483 154.616 43.2487 154.32 43.2487C154.024 43.2487 153.821 43.0483 153.821 42.7751V42.1557C153.34 42.7751 152.545 43.3216 151.343 43.3216C150.085 43.3398 148.79 42.6111 148.79 41.2266ZM153.839 40.7165V40.0606C153.34 39.9149 152.656 39.7692 151.824 39.7692C150.529 39.7692 149.826 40.3157 149.826 41.1719V41.1901C149.826 42.0464 150.621 42.5382 151.546 42.5382C152.804 42.5382 153.839 41.7913 153.839 40.7165Z" fill="#16B8B2"/>
<path d="M157.187 34.1035C157.187 33.8302 157.409 33.5934 157.686 33.5934C157.982 33.5934 158.204 33.8302 158.204 34.1035V37.6195C158.648 36.8908 159.369 36.3078 160.553 36.3078C162.218 36.3078 163.179 37.4009 163.179 39.004V42.7569C163.179 43.0484 162.957 43.267 162.68 43.267C162.384 43.267 162.162 43.0484 162.162 42.7569V39.2591C162.162 38.0021 161.478 37.2187 160.276 37.2187C159.092 37.2187 158.223 38.0749 158.223 39.332V42.7569C158.223 43.0484 158.019 43.267 157.723 43.267C157.427 43.267 157.206 43.0484 157.206 42.7569V34.1035H157.187Z" fill="#16B8B2"/>
<path d="M165.029 41.2266V41.2084C165.029 39.7874 166.231 39.0222 167.951 39.0222C168.82 39.0222 169.449 39.1498 170.059 39.3137V39.0769C170.059 37.8563 169.301 37.2369 168.006 37.2369C167.322 37.2369 166.73 37.4009 166.231 37.6195C166.175 37.6377 166.102 37.6559 166.046 37.6559C165.806 37.6559 165.602 37.4555 165.602 37.2187C165.602 37.0001 165.75 36.8543 165.88 36.7997C166.564 36.5082 167.248 36.3442 168.117 36.3442C169.079 36.3442 169.837 36.5993 170.337 37.0912C170.799 37.5466 171.04 38.2024 171.04 39.0587V42.7569C171.04 43.0483 170.818 43.2487 170.54 43.2487C170.244 43.2487 170.059 43.0483 170.059 42.7751V42.1557C169.579 42.7751 168.783 43.3216 167.581 43.3216C166.323 43.3398 165.029 42.6111 165.029 41.2266ZM170.078 40.7165V40.0606C169.579 39.9149 168.894 39.7692 168.062 39.7692C166.767 39.7692 166.065 40.3157 166.065 41.1719V41.1901C166.065 42.0464 166.86 42.5382 167.785 42.5382C169.061 42.5382 170.078 41.7913 170.078 40.7165Z" fill="#16B8B2"/>
<path d="M173.425 34.1035C173.425 33.812 173.647 33.5934 173.925 33.5934C174.221 33.5934 174.443 33.812 174.443 34.1035V37.8017C174.997 37.0001 175.811 36.3078 177.069 36.3078C178.715 36.3078 180.342 37.5831 180.342 39.8056V39.8238C180.342 42.0282 178.733 43.3398 177.069 43.3398C175.793 43.3398 174.979 42.6658 174.443 41.9006V42.7569C174.443 43.0301 174.221 43.267 173.943 43.267C173.647 43.267 173.425 43.0301 173.425 42.7569V34.1035ZM179.307 39.842V39.8056C179.307 38.2025 178.197 37.2005 176.884 37.2005C175.608 37.2005 174.406 38.2571 174.406 39.8056V39.8238C174.406 41.3905 175.608 42.429 176.884 42.429C178.216 42.429 179.307 41.4634 179.307 39.842Z" fill="#16B8B2"/>
<path d="M181.914 41.2266V41.2084C181.914 39.7874 183.117 39.0222 184.855 39.0222C185.724 39.0222 186.353 39.1498 186.964 39.3137V39.0769C186.964 37.8563 186.205 37.2369 184.929 37.2369C184.245 37.2369 183.653 37.4009 183.154 37.6195C183.08 37.6377 183.024 37.6559 182.969 37.6559C182.728 37.6559 182.525 37.4555 182.525 37.2187C182.525 37.0001 182.673 36.8543 182.802 36.7997C183.487 36.5082 184.171 36.3442 185.04 36.3442C186.002 36.3442 186.76 36.5993 187.26 37.0912C187.722 37.5466 187.962 38.2024 187.962 39.0587V42.7569C187.962 43.0483 187.759 43.2487 187.463 43.2487C187.167 43.2487 186.982 43.0483 186.982 42.7751V42.1557C186.501 42.7751 185.706 43.3216 184.504 43.3216C183.209 43.3398 181.914 42.6111 181.914 41.2266ZM186.964 40.7165V40.0606C186.464 39.9149 185.78 39.7692 184.948 39.7692C183.672 39.7692 182.95 40.3157 182.95 41.1719V41.1901C182.95 42.0464 183.745 42.5382 184.67 42.5382C185.928 42.5382 186.964 41.7913 186.964 40.7165Z" fill="#16B8B2"/>
<path d="M190.607 41.4087V37.3279H190.052C189.812 37.3279 189.608 37.1093 189.608 36.8907C189.608 36.6356 189.812 36.4535 190.052 36.4535H190.607V34.8503C190.607 34.577 190.811 34.3402 191.106 34.3402C191.384 34.3402 191.624 34.577 191.624 34.8503V36.4535H193.4C193.659 36.4535 193.862 36.6539 193.862 36.8907C193.862 37.1457 193.64 37.3279 193.4 37.3279H191.624V41.2811C191.624 42.1009 192.087 42.4106 192.771 42.4106C193.122 42.4106 193.307 42.3195 193.4 42.3195C193.64 42.3195 193.844 42.5199 193.844 42.7568C193.844 42.9389 193.733 43.0847 193.548 43.1576C193.252 43.2669 192.937 43.3397 192.531 43.3397C191.439 43.3033 190.607 42.775 190.607 41.4087Z" fill="#16B8B2"/>
<path d="M195.416 44.269C195.952 44.0322 196.192 43.7043 196.156 43.1942C195.878 43.1213 195.638 42.9209 195.638 42.5566V42.3562C195.638 42.0101 195.897 41.755 196.248 41.755C196.636 41.755 196.895 42.0465 196.895 42.4655V42.7205C196.895 43.5039 196.729 43.9958 196.414 44.2873C196.137 44.5605 195.73 44.7609 195.508 44.7609C195.342 44.7609 195.231 44.6516 195.231 44.5059C195.249 44.3966 195.323 44.3055 195.416 44.269Z" fill="#16B8B2"/>
<path d="M203.424 34.1035C203.424 33.8302 203.646 33.5934 203.923 33.5934C204.219 33.5934 204.441 33.8302 204.441 34.1035V37.6195C204.885 36.8908 205.606 36.3078 206.79 36.3078C208.455 36.3078 209.416 37.4009 209.416 39.004V42.7569C209.416 43.0484 209.194 43.267 208.917 43.267C208.621 43.267 208.399 43.0484 208.399 42.7569V39.2591C208.399 38.0021 207.715 37.2187 206.494 37.2187C205.31 37.2187 204.441 38.0749 204.441 39.332V42.7569C204.441 43.0484 204.238 43.267 203.942 43.267C203.646 43.267 203.424 43.0484 203.424 42.7569V34.1035Z" fill="#16B8B2"/>
<path d="M211.266 41.2266V41.2084C211.266 39.7874 212.468 39.0222 214.206 39.0222C215.076 39.0222 215.704 39.1498 216.315 39.3137V39.0769C216.315 37.8563 215.557 37.2369 214.28 37.2369C213.596 37.2369 213.004 37.4009 212.505 37.6195C212.431 37.6377 212.375 37.6559 212.32 37.6559C212.08 37.6559 211.876 37.4555 211.876 37.2187C211.876 37.0001 212.024 36.8543 212.153 36.7997C212.838 36.5082 213.522 36.3442 214.391 36.3442C215.353 36.3442 216.093 36.5993 216.611 37.0912C217.073 37.5466 217.314 38.2024 217.314 39.0587V42.7569C217.314 43.0483 217.11 43.2487 216.814 43.2487C216.518 43.2487 216.333 43.0483 216.333 42.7751V42.1557C215.852 42.7751 215.057 43.3216 213.855 43.3216C212.56 43.3398 211.266 42.6111 211.266 41.2266ZM216.333 40.7165V40.0606C215.834 39.9149 215.15 39.7692 214.317 39.7692C213.023 39.7692 212.32 40.3157 212.32 41.1719V41.1901C212.32 42.0464 213.115 42.5382 214.04 42.5382C215.298 42.5382 216.333 41.7913 216.333 40.7165Z" fill="#16B8B2"/>
<path d="M219.662 36.8908C219.662 36.6175 219.884 36.3807 220.162 36.3807C220.458 36.3807 220.68 36.5993 220.68 36.8908V38.1478C221.179 37.0183 222.178 36.3442 223.047 36.3442C223.361 36.3442 223.546 36.5629 223.546 36.8543C223.546 37.1276 223.361 37.328 223.102 37.3644C221.771 37.5284 220.68 38.4939 220.68 40.4432V42.7386C220.68 43.0119 220.476 43.2487 220.18 43.2487C219.884 43.2487 219.662 43.0301 219.662 42.7386V36.8908Z" fill="#16B8B2"/>
<path d="M225.118 44.5057C224.952 44.4329 224.859 44.2689 224.859 44.0867C224.859 43.8681 225.081 43.6495 225.322 43.6495C225.414 43.6495 225.488 43.6677 225.544 43.7224C226.265 44.196 227.079 44.4511 227.967 44.4511C229.483 44.4511 230.463 43.6313 230.463 42.0464V41.2448C229.871 42.0281 229.039 42.6658 227.763 42.6658C226.117 42.6658 224.545 41.4452 224.545 39.4959V39.4595C224.545 37.4919 226.136 36.2714 227.763 36.2714C229.058 36.2714 229.89 36.8908 230.445 37.6195V36.8543C230.445 36.5811 230.667 36.3442 230.944 36.3442C231.24 36.3442 231.462 36.5811 231.462 36.8543V41.9917C231.462 43.0301 231.148 43.8317 230.593 44.3782C229.982 44.9794 229.076 45.2891 227.985 45.2891C226.949 45.3073 225.988 45.0341 225.118 44.5057ZM230.5 39.4959V39.4595C230.5 38.0749 229.28 37.164 227.985 37.164C226.69 37.164 225.618 38.0567 225.618 39.4412V39.4595C225.618 40.8258 226.727 41.7549 227.985 41.7549C229.28 41.7913 230.5 40.8622 230.5 39.4959Z" fill="#16B8B2"/>
<path d="M233.441 41.2266V41.2084C233.441 39.7874 234.625 39.0222 236.363 39.0222C237.232 39.0222 237.861 39.1498 238.472 39.3137V39.0769C238.472 37.8563 237.713 37.2369 236.437 37.2369C235.753 37.2369 235.161 37.4009 234.662 37.6195C234.588 37.6377 234.532 37.6559 234.477 37.6559C234.236 37.6559 234.033 37.4555 234.033 37.2187C234.033 37.0001 234.181 36.8543 234.31 36.7997C234.995 36.5082 235.679 36.3442 236.548 36.3442C237.51 36.3442 238.268 36.5993 238.767 37.0912C239.23 37.5466 239.47 38.2024 239.47 39.0587V42.7569C239.47 43.0483 239.248 43.2487 238.971 43.2487C238.675 43.2487 238.472 43.0483 238.472 42.7751V42.1557C237.991 42.7751 237.195 43.3216 235.993 43.3216C234.736 43.3398 233.441 42.6111 233.441 41.2266ZM238.49 40.7165V40.0606C237.991 39.9149 237.306 39.7692 236.474 39.7692C235.179 39.7692 234.477 40.3157 234.477 41.1719V41.1901C234.477 42.0464 235.272 42.5382 236.197 42.5382C237.454 42.5382 238.49 41.7913 238.49 40.7165Z" fill="#16B8B2"/>
<path d="M245.259 45.3074C244.963 45.2892 244.741 45.1434 244.741 44.8702C244.741 44.6333 244.945 44.4512 245.167 44.4512C245.241 44.4512 245.315 44.4694 245.389 44.4694C245.814 44.4694 246.11 44.1961 246.11 43.6132V36.8908C246.11 36.6176 246.332 36.3807 246.609 36.3807C246.905 36.3807 247.127 36.5993 247.127 36.8908V43.5949C247.127 44.7791 246.498 45.3256 245.5 45.3256C245.407 45.3256 245.315 45.3256 245.259 45.3074ZM246.017 34.3221C246.017 33.9942 246.276 33.7938 246.609 33.7938C246.961 33.7938 247.22 33.9942 247.22 34.3221V34.4861C247.22 34.7958 246.961 35.0144 246.609 35.0144C246.276 35.0144 246.017 34.7958 246.017 34.4861V34.3221Z" fill="#16B8B2"/>
<path d="M255.579 42.7569C255.579 43.0302 255.376 43.267 255.08 43.267C254.802 43.267 254.58 43.0484 254.58 42.7569V42.0282C254.118 42.7569 253.415 43.3399 252.232 43.3399C250.567 43.3399 249.605 42.2468 249.605 40.6437V36.8908C249.605 36.5993 249.827 36.3807 250.105 36.3807C250.382 36.3807 250.623 36.5993 250.623 36.8908V40.3886C250.623 41.6456 251.307 42.429 252.509 42.429C253.674 42.429 254.562 41.5728 254.562 40.3158V36.8908C254.562 36.5993 254.784 36.3807 255.061 36.3807C255.339 36.3807 255.561 36.5993 255.561 36.8908V42.7569H255.579Z" fill="#16B8B2"/>
<path d="M257.299 45.3074C257.003 45.2892 256.781 45.1434 256.781 44.8702C256.781 44.6333 256.985 44.4512 257.207 44.4512C257.281 44.4512 257.373 44.4694 257.429 44.4694C257.854 44.4694 258.15 44.1961 258.15 43.6132V36.8908C258.15 36.6176 258.372 36.3807 258.649 36.3807C258.945 36.3807 259.167 36.5993 259.167 36.8908V43.5949C259.167 44.7791 258.52 45.3256 257.54 45.3256C257.447 45.3256 257.373 45.3256 257.299 45.3074ZM258.058 34.3221C258.058 33.9942 258.316 33.7938 258.649 33.7938C259.001 33.7938 259.26 33.9942 259.26 34.3221V34.4861C259.26 34.7958 259.001 35.0144 258.649 35.0144C258.316 35.0144 258.058 34.7958 258.058 34.4861V34.3221Z" fill="#16B8B2"/>
<path d="M267.619 42.7569C267.619 43.0302 267.397 43.267 267.12 43.267C266.842 43.267 266.621 43.0484 266.621 42.7569V42.0282C266.158 42.7569 265.455 43.3399 264.272 43.3399C262.607 43.3399 261.645 42.2468 261.645 40.6437V36.8908C261.645 36.5993 261.849 36.3807 262.145 36.3807C262.422 36.3807 262.663 36.5993 262.663 36.8908V40.3886C262.663 41.6456 263.347 42.429 264.568 42.429C265.733 42.429 266.621 41.5728 266.621 40.3158V36.8908C266.621 36.5993 266.824 36.3807 267.12 36.3807C267.397 36.3807 267.619 36.5993 267.619 36.8908V42.7569Z" fill="#16B8B2"/>
<path d="M270.116 36.8908C270.116 36.6175 270.338 36.3807 270.615 36.3807C270.911 36.3807 271.133 36.5993 271.133 36.8908V38.1478C271.633 37.0183 272.631 36.3442 273.501 36.3442C273.815 36.3442 274 36.5629 274 36.8543C274 37.1276 273.815 37.328 273.556 37.3644C272.224 37.5284 271.133 38.4939 271.133 40.4432V42.7386C271.133 43.0119 270.93 43.2487 270.634 43.2487C270.338 43.2487 270.116 43.0301 270.116 42.7386V36.8908Z" fill="#16B8B2"/>
<path d="M62.0869 11.2949C62.0869 10.2565 62.9192 9.43672 63.9734 9.43672H68.8005C74.2195 9.43672 77.9555 13.0985 77.9555 17.8715V17.9261C77.9555 22.6992 74.2195 26.4156 68.8005 26.4156H63.9734C62.9192 26.4156 62.0869 25.5958 62.0869 24.5574V11.2949ZM68.8005 23.0453C71.9077 23.0453 73.9976 20.9867 73.9976 17.9808V17.9261C73.9976 14.9202 71.9077 12.807 68.8005 12.807H65.8599V23.0453H68.8005ZM81.303 19.1285V11.1492C81.303 10.1108 82.1353 9.27276 83.208 9.27276C84.2622 9.27276 85.0944 10.0926 85.0944 11.1492V19.0374C85.0944 21.8065 86.5 23.2275 88.8119 23.2275C91.1237 23.2275 92.5293 21.8429 92.5293 19.1467V11.1492C92.5293 10.1108 93.3616 9.27276 94.4158 9.27276C95.47 9.27276 96.3023 10.0926 96.3023 11.1492V19.001C96.3023 24.1384 93.3801 26.6706 88.7379 26.6706C84.1327 26.6706 81.303 24.1384 81.303 19.1285ZM100.149 24.612C99.7238 24.3205 99.4279 23.7922 99.4279 23.2093C99.4279 22.2437 100.223 21.4786 101.203 21.4786C101.703 21.4786 102.036 21.6426 102.295 21.8247C103.608 22.772 105.032 23.355 106.696 23.355C108.25 23.355 109.175 22.7538 109.175 21.7519V21.6972C109.175 20.7499 108.583 20.258 105.698 19.5475C102.221 18.6731 99.9827 17.7258 99.9827 14.3555V14.3008C99.9827 11.222 102.498 9.18167 106.012 9.18167C108.102 9.18167 109.933 9.70998 111.468 10.6755C111.893 10.9123 112.3 11.4224 112.3 12.1511C112.3 13.1167 111.505 13.8818 110.525 13.8818C110.155 13.8818 109.859 13.7907 109.563 13.6086C108.305 12.8799 107.122 12.4608 105.938 12.4608C104.495 12.4608 103.719 13.1167 103.719 13.9365V13.9911C103.719 15.1024 104.458 15.4668 107.436 16.2319C110.932 17.1246 112.911 18.3634 112.911 21.3146V21.3693C112.911 24.7396 110.303 26.6342 106.585 26.6342C104.366 26.6524 102.073 25.9784 100.149 24.612ZM116.591 11.2949C116.591 10.2565 117.423 9.43672 118.477 9.43672H123.305C128.724 9.43672 132.46 13.0985 132.46 17.8715V17.9261C132.46 22.6992 128.724 26.4156 123.305 26.4156H118.477C117.423 26.4156 116.591 25.5958 116.591 24.5574V11.2949ZM123.323 23.0453C126.43 23.0453 128.52 20.9867 128.52 17.9808V17.9261C128.52 14.9202 126.43 12.807 123.323 12.807H120.382V23.0453H123.323ZM135.826 19.1285V11.1492C135.826 10.1108 136.658 9.27276 137.712 9.27276C138.766 9.27276 139.617 10.0926 139.617 11.1492V19.0374C139.617 21.8065 141.023 23.2275 143.334 23.2275C145.646 23.2275 147.052 21.8429 147.052 19.1467V11.1492C147.052 10.1108 147.884 9.27276 148.938 9.27276C149.993 9.27276 150.825 10.0926 150.825 11.1492V19.001C150.825 24.1384 147.903 26.6706 143.26 26.6706C138.655 26.6706 135.826 24.1384 135.826 19.1285ZM154.672 24.612C154.246 24.3205 153.95 23.7922 153.95 23.2093C153.95 22.2437 154.746 21.4786 155.726 21.4786C156.225 21.4786 156.558 21.6426 156.817 21.8247C158.13 22.772 159.554 23.355 161.219 23.355C162.772 23.355 163.716 22.7538 163.716 21.7519V21.6972C163.716 20.7499 163.124 20.258 160.239 19.5475C156.762 18.6731 154.524 17.7258 154.524 14.3555V14.3008C154.524 11.222 157.039 9.18167 160.553 9.18167C162.643 9.18167 164.474 9.70998 166.028 10.6755C166.453 10.9123 166.86 11.4224 166.86 12.1511C166.86 13.1167 166.065 13.8818 165.084 13.8818C164.714 13.8818 164.418 13.7907 164.123 13.6086C162.865 12.8799 161.681 12.4608 160.498 12.4608C159.055 12.4608 158.278 13.1167 158.278 13.9365V13.9911C158.278 15.1024 159.018 15.4668 161.996 16.2319C165.491 17.1246 167.47 18.3634 167.47 21.3146V21.3693C167.47 24.7396 164.862 26.6342 161.145 26.6342C158.889 26.6524 156.595 25.9784 154.672 24.612ZM169.8 24.0108L175.811 10.6391C176.237 9.7282 176.995 9.16345 178.031 9.16345H178.253C179.288 9.16345 180.028 9.7282 180.435 10.6391L186.446 24.0108C186.575 24.2841 186.649 24.5209 186.649 24.7578C186.649 25.7597 185.872 26.5431 184.855 26.5431C183.967 26.5431 183.376 26.033 183.043 25.2679L181.878 22.6081H174.295L173.093 25.3954C172.778 26.1241 172.131 26.5613 171.354 26.5613C170.374 26.5613 169.597 25.7962 169.597 24.8124C169.579 24.5392 169.671 24.2841 169.8 24.0108ZM180.453 19.3107L178.068 13.7179L175.682 19.3107H180.453ZM189.497 11.2038C189.497 10.1654 190.33 9.34563 191.402 9.34563H191.791C192.697 9.34563 193.233 9.78285 193.751 10.4387L201.057 19.8937V11.131C201.057 10.1108 201.889 9.29098 202.925 9.29098C203.96 9.29098 204.793 10.1108 204.793 11.131V24.6302C204.793 25.6687 203.96 26.5067 202.906 26.5067H202.777C201.87 26.5067 201.334 26.0694 200.816 25.4136L193.233 15.6125V24.7031C193.233 25.7233 192.401 26.5431 191.365 26.5431C190.33 26.5431 189.497 25.7233 189.497 24.7031V11.2038Z" fill="#16B8B2"/>
<path d="M210.97 22.4624C212.209 22.4624 213.134 23.3733 213.134 24.5392V24.5939C213.134 25.778 212.209 26.6707 210.97 26.6707C209.731 26.6707 208.806 25.7598 208.806 24.5939V24.5392C208.806 23.3551 209.731 22.4624 210.97 22.4624Z" fill="#16B8B2"/>
<path d="M215.113 17.8533V17.7986C215.113 12.9163 218.849 8.92664 224.212 8.92664C226.82 8.92664 228.595 9.61891 230.038 10.6755C230.445 10.967 230.796 11.5135 230.796 12.1694C230.796 13.1896 229.945 14.0094 228.91 14.0094C228.392 14.0094 228.041 13.809 227.763 13.645C226.69 12.8617 225.562 12.4244 224.194 12.4244C221.253 12.4244 219.145 14.8292 219.145 17.7804V17.8351C219.145 20.7863 221.216 23.2275 224.194 23.2275C225.821 23.2275 226.875 22.7356 227.985 21.8794C228.281 21.6243 228.688 21.4604 229.132 21.4604C230.093 21.4604 230.926 22.2437 230.926 23.2093C230.926 23.7922 230.63 24.2659 230.278 24.5574C228.706 25.9055 226.857 26.7253 224.083 26.7253C218.923 26.6706 215.113 22.7721 215.113 17.8533Z" fill="#16B8B2"/>
<path d="M233.237 17.8533V17.7986C233.237 12.9163 237.14 8.92664 242.522 8.92664C247.904 8.92664 251.769 12.8799 251.769 17.7622V17.8169C251.769 22.6992 247.867 26.6889 242.485 26.6889C237.103 26.6889 233.237 22.7356 233.237 17.8533ZM247.756 17.8533V17.7986C247.756 14.8474 245.555 12.4062 242.485 12.4062C239.396 12.4062 237.251 14.8109 237.251 17.7622V17.8169C237.251 20.7681 239.452 23.2093 242.522 23.2093C245.611 23.1911 247.756 20.7863 247.756 17.8533Z" fill="#16B8B2"/>
<path d="M255.431 11.1492C255.431 10.0925 256.282 9.25452 257.355 9.25452H257.78C258.594 9.25452 259.167 9.67352 259.519 10.2383L264.142 17.6711L268.803 10.2201C269.191 9.58243 269.746 9.25452 270.523 9.25452H270.948C272.021 9.25452 272.872 10.0925 272.872 11.1492V24.7942C272.872 25.8508 272.021 26.6888 270.948 26.6888C269.894 26.6888 269.062 25.8326 269.062 24.7942V16.2319L265.696 21.3328C265.289 21.9158 264.79 22.2984 264.105 22.2984C263.402 22.2984 262.903 21.934 262.515 21.3328L259.204 16.3048V24.8488C259.204 25.8872 258.353 26.6888 257.318 26.6888C256.263 26.6888 255.45 25.8872 255.45 24.8488V11.1492H255.431Z" fill="#16B8B2"/>
</svg>
